<?xml version="1.0" standalone="no"?>
<!DOCTYPE svg PUBLIC "-//W3C//DTD SVG 20010904//EN"
 "http://www.w3.org/TR/2001/REC-SVG-20010904/DTD/svg10.dtd">
<svg version="1.0" xmlns="http://www.w3.org/2000/svg"
 width="500.000000pt" height="500.000000pt" viewBox="0 0 500.000000 500.000000"
 preserveAspectRatio="xMidYMid meet">

<g transform="translate(0.000000,500.000000) scale(0.100000,-0.100000)"
fill="#000000" stroke="none">
<path d="M2775 4380 c33 -4 80 -10 105 -13 l45 -6 -50 14 c-27 7 -75 13 -105
13 l-55 -1 60 -7z"/>
<path d="M1925 4346 c-123 -40 -163 -60 -193 -96 -12 -16 -69 -53 -127 -84
-115 -61 -225 -132 -309 -201 -30 -24 -68 -48 -84 -52 -20 -5 -66 -46 -134
-118 l-103 -110 98 89 c54 49 101 94 105 101 4 6 32 24 62 38 30 15 96 57 147
94 51 37 134 91 184 118 51 28 118 74 149 103 44 40 74 58 131 77 110 38 197
56 238 50 l36 -6 -34 16 c-44 20 -49 19 -166 -19z"/>
<path d="M2228 4366 c-42 -6 -80 -15 -85 -20 -5 -5 11 -6 37 -2 116 19 237 27
373 25 81 -1 150 1 154 4 11 11 -396 5 -479 -7z"/>
<path d="M2938 4353 c7 -3 16 -2 19 1 4 3 -2 6 -13 5 -11 0 -14 -3 -6 -6z"/>
<path d="M2684 4341 c6 -9 49 -14 196 -25 49 -3 58 -2 35 5 -16 5 -66 11 -110
15 -44 3 -91 7 -103 10 -14 3 -21 1 -18 -5z"/>
<path d="M3025 4330 c11 -5 27 -9 35 -9 9 0 8 4 -5 9 -11 5 -27 9 -35 9 -9 0
-8 -4 5 -9z"/>
<path d="M3090 4313 c91 -34 141 -50 133 -42 -10 10 -121 49 -137 48 -6 0 -4
-3 4 -6z"/>
<path d="M2780 4300 c64 -12 233 -30 238 -26 5 6 -126 24 -208 29 -58 4 -65 3
-30 -3z"/>
<path d="M1956 4265 c-27 -20 -167 -78 -173 -71 -3 3 14 15 38 27 33 15 37 19
15 14 -17 -3 -41 -15 -55 -24 -14 -10 -33 -21 -41 -24 -8 -2 -2 -3 14 -1 24 3
26 2 17 -10 -17 -21 151 51 185 79 31 26 31 34 0 10z"/>
<path d="M1760 4230 c-19 -11 -28 -19 -20 -20 8 0 29 9 45 20 38 25 21 25 -25
0z"/>
<path d="M3310 4195 c80 -38 250 -137 250 -147 0 -4 8 -8 18 -8 33 1 -240 160
-298 174 -14 4 0 -5 30 -19z"/>
<path d="M3095 4041 c3 -6 -2 -11 -12 -11 -11 0 -28 -7 -39 -15 -24 -18 -38
-19 -28 -2 4 6 -6 0 -22 -16 -60 -58 -27 -170 64 -216 54 -27 96 -37 49 -11
-22 12 -35 25 -31 32 5 7 3 8 -5 3 -15 -8 -57 28 -77 67 -19 36 -18 90 2 114
12 15 15 16 10 2 -4 -13 3 -11 32 9 33 22 45 24 104 20 65 -4 163 -43 238 -93
19 -13 18 -11 -5 10 -16 15 -43 35 -60 46 -57 35 -235 84 -220 61z"/>
<path d="M3297 4005 c91 -45 163 -120 163 -168 0 -36 -13 -58 -45 -75 -11 -6
-14 -12 -7 -12 8 0 27 14 44 30 43 44 35 87 -28 151 -48 49 -147 109 -179 109
-10 0 14 -16 52 -35z"/>
<path d="M3650 4023 c153 -113 293 -250 331 -325 16 -32 31 -58 33 -58 3 0 -6
28 -19 63 -19 49 -38 74 -87 120 -76 70 -208 175 -251 200 -31 18 -31 18 -7 0z"/>
<path d="M3660 3957 c30 -31 57 -54 59 -51 6 6 -69 83 -94 96 -11 6 5 -14 35
-45z"/>
<path d="M3054 3991 c-12 -5 -25 -15 -30 -22 -5 -9 -2 -10 12 -4 10 5 51 11
91 13 58 3 82 -1 132 -21 77 -31 80 -24 4 10 -60 28 -171 40 -209 24z"/>
<path d="M3620 3962 c21 -29 97 -97 127 -115 15 -9 11 16 -6 37 -7 9 -17 14
-21 11 -4 -2 -16 5 -26 16 -11 12 -37 35 -59 53 l-39 31 24 -33z m121 -89 c13
-16 12 -17 -3 -4 -17 13 -22 21 -14 21 2 0 10 -8 17 -17z"/>
<path d="M3100 3960 c0 -5 18 -10 39 -10 34 0 38 -3 34 -20 -4 -14 0 -20 11
-20 9 0 16 8 16 19 0 17 4 18 32 10 17 -5 34 -7 36 -5 7 8 -100 36 -135 36
-18 0 -33 -4 -33 -10z"/>
<path d="M3700 3955 c33 -46 57 -68 95 -86 l40 -20 -30 23 c-16 13 -50 41 -75
63 -25 22 -38 31 -30 20z"/>
<path d="M3106 3921 c-4 -7 -5 -15 -2 -18 9 -9 19 4 14 18 -4 11 -6 11 -12 0z"/>
<path d="M3220 3920 c0 -5 5 -10 11 -10 5 0 7 5 4 10 -3 6 -8 10 -11 10 -2 0
-4 -4 -4 -10z"/>
<path d="M2164 3893 c-20 -22 -25 -35 -21 -60 3 -19 1 -33 -4 -33 -6 0 -7 -4
-4 -10 3 -5 11 -10 16 -10 6 0 7 5 4 10 -3 6 -1 10 4 10 7 0 7 7 -1 20 -9 15
-10 25 -2 37 17 28 61 56 74 48 9 -6 9 -10 -1 -17 -10 -7 -7 -8 9 -5 18 4 22
2 18 -10 -4 -9 -1 -13 6 -11 7 3 13 16 13 29 0 21 -5 24 -42 27 -36 3 -47 -1
-69 -25z"/>
<path d="M3035 3910 c3 -5 8 -10 11 -10 2 0 4 5 4 10 0 6 -5 10 -11 10 -5 0
-7 -4 -4 -10z"/>
<path d="M1235 3854 c-8 -20 -28 -53 -45 -74 -43 -54 -37 -57 11 -5 23 24 45
60 49 80 10 45 4 45 -15 -1z"/>
<path d="M3305 3880 c3 -5 10 -10 16 -10 5 0 9 5 9 10 0 6 -7 10 -16 10 -8 0
-12 -4 -9 -10z"/>
<path d="M2771 3833 c7 -12 15 -20 18 -17 3 2 -3 12 -13 22 -17 16 -18 16 -5
-5z"/>
<path d="M2061 3784 c-1 -41 3 -55 22 -72 13 -12 32 -22 43 -21 18 0 18 1 -1
9 -33 13 -49 39 -56 89 l-6 46 -2 -51z"/>
<path d="M1144 3788 l-19 -23 23 19 c21 18 27 26 19 26 -2 0 -12 -10 -23 -22z"/>
<path d="M2999 3787 c54 -60 201 -105 295 -91 50 8 48 8 -45 15 -100 7 -169
30 -242 80 l-32 23 24 -27z"/>
<path d="M2993 3762 c45 -47 143 -92 213 -97 55 -4 57 -4 19 5 -96 24 -169 54
-213 87 -45 34 -46 34 -19 5z"/>
<path d="M1117 3738 c-12 -13 -30 -34 -40 -48 -17 -25 -17 -24 -2 10 l16 35
-21 -27 c-12 -16 -29 -28 -38 -29 -12 0 -13 -2 -4 -6 10 -4 9 -8 -4 -18 -15
-10 -13 -11 15 -7 19 2 39 14 49 29 9 13 28 37 40 54 28 34 21 39 -11 7z"/>
<path d="M2190 3733 c31 -16 35 -22 34 -58 0 -22 -3 -53 -7 -70 -5 -23 -2 -20
14 14 30 63 12 114 -46 126 -30 7 -30 7 5 -12z"/>
<path d="M2980 3736 c0 -2 8 -10 18 -17 15 -13 16 -12 3 4 -13 16 -21 21 -21
13z"/>
<path d="M1831 3700 c-1 -50 29 -93 96 -135 32 -21 69 -47 83 -59 19 -16 18
-13 -5 12 -16 18 -51 46 -76 63 -54 34 -75 63 -88 116 l-9 38 -1 -35z"/>
<path d="M1245 3698 c4 -16 -7 -46 -35 -93 -38 -65 -38 -68 -9 -35 38 44 71
113 63 134 -9 24 -25 19 -19 -6z"/>
<path d="M3025 3700 c11 -17 105 -61 123 -58 10 3 1 9 -23 17 -22 7 -55 22
-73 32 -18 11 -30 14 -27 9z"/>
<path d="M1420 3630 c0 -5 5 -10 10 -10 6 0 10 5 10 10 0 6 -4 10 -10 10 -5 0
-10 -4 -10 -10z"/>
<path d="M1276 3600 c-39 -34 -62 -108 -53 -166 4 -20 2 -32 -4 -29 -5 4 -10
18 -10 33 -1 16 -3 20 -6 10 -6 -24 39 -136 57 -143 12 -5 13 -4 3 6 -7 7 -13
23 -13 35 0 13 -4 26 -10 29 -5 3 -10 11 -10 17 0 6 7 5 17 -3 16 -13 16 -13
0 10 -18 26 -15 87 6 126 6 11 10 23 10 26 -4 11 42 47 67 53 19 4 17 2 -7 -9
-32 -15 -52 -35 -34 -35 5 0 13 5 16 10 10 16 51 12 66 -7 13 -15 12 -15 -8
-4 -17 8 -28 9 -43 1 -26 -14 -25 -18 4 -13 16 3 28 -2 39 -17 14 -20 15 -20
19 -3 4 13 8 8 15 -17 8 -25 11 -29 12 -13 1 30 -17 76 -36 91 -9 6 -12 12 -6
12 17 0 37 -30 50 -74 9 -35 11 -37 12 -13 2 43 -25 96 -54 107 -42 16 -62 12
-99 -20z"/>
<path d="M4036 3602 c10 -19 32 -48 47 -65 21 -24 19 -18 -9 23 -46 67 -63 86
-38 42z"/>
<path d="M890 3514 c-35 -53 -98 -170 -141 -260 -44 -90 -96 -190 -118 -223
-36 -56 -39 -67 -46 -157 -4 -54 -18 -142 -31 -196 -28 -117 -29 -194 -4 -263
23 -61 26 -29 4 44 -16 57 -14 89 16 231 10 47 23 128 29 180 9 83 15 100 46
146 20 28 58 105 86 170 57 135 99 213 177 332 30 45 53 85 50 87 -3 3 -34
-38 -68 -91z"/>
<path d="M1006 3569 c-14 -17 -26 -36 -26 -43 0 -7 -13 -30 -30 -52 -38 -50
-39 -65 -2 -22 25 29 95 148 87 148 -2 0 -15 -14 -29 -31z"/>
<path d="M2039 3539 c37 -36 61 -85 61 -126 0 -20 3 -24 11 -16 29 29 -26 135
-85 164 -13 7 -9 -1 13 -22z"/>
<path d="M2201 3554 c0 -11 3 -14 6 -6 3 7 2 16 -1 19 -3 4 -6 -2 -5 -13z"/>
<path d="M890 3458 c-29 -45 -67 -113 -85 -152 -60 -132 -47 -122 25 18 39 77
79 151 89 165 25 37 33 51 28 51 -3 0 -29 -37 -57 -82z"/>
<path d="M3813 3533 c-34 -7 -82 -73 -53 -73 6 0 10 9 10 21 0 15 5 19 16 15
8 -3 13 -2 10 3 -6 9 17 22 37 20 7 0 3 -4 -8 -9 -17 -7 -15 -9 11 -9 27 -1
83 -41 57 -41 -6 0 -16 7 -23 15 -7 8 -24 15 -39 14 -14 0 -19 -3 -11 -6 45
-15 46 -15 26 -22 -19 -7 -19 -8 2 -13 12 -4 20 -2 16 3 -3 5 -1 9 4 9 5 0 32
-24 61 -54 28 -30 51 -50 51 -44 0 5 7 8 15 4 31 -12 13 16 -51 77 -36 34 -73
65 -82 69 -14 5 -13 7 5 7 13 1 35 -15 57 -41 20 -23 36 -37 36 -32 -1 5 -15
26 -33 46 -32 38 -68 51 -114 41z m102 -83 c3 -5 1 -10 -4 -10 -6 0 -11 5 -11
10 0 6 2 10 4 10 3 0 8 -4 11 -10z"/>
<path d="M1290 3510 c0 -5 5 -10 10 -10 6 0 10 5 10 10 0 6 -4 10 -10 10 -5 0
-10 -4 -10 -10z"/>
<path d="M1340 3500 c0 -5 5 -10 10 -10 6 0 10 5 10 10 0 6 -4 10 -10 10 -5 0
-10 -4 -10 -10z"/>
<path d="M2524 3482 c3 -6 25 -13 49 -17 23 -4 57 -13 75 -21 18 -7 30 -9 27
-4 -3 5 -32 17 -63 26 -31 8 -65 18 -76 21 -11 3 -16 1 -12 -5z"/>
<path d="M4195 3416 c27 -37 59 -96 72 -130 20 -54 22 -56 17 -21 -9 61 -48
135 -95 180 l-42 40 48 -69z"/>
<path d="M1096 3437 c-5 -21 -6 -41 -2 -44 12 -12 17 5 14 43 l-4 39 -8 -38z"/>
<path d="M1340 3459 c0 -5 5 -7 10 -4 6 3 10 8 10 11 0 2 -4 4 -10 4 -5 0 -10
-5 -10 -11z"/>
<path d="M4090 3445 c0 -12 129 -203 143 -212 7 -4 4 5 -5 20 -24 36 -23 44 4
21 l21 -19 -17 30 c-27 45 -68 94 -60 70 9 -26 1 -18 -46 46 -22 29 -40 49
-40 44z m120 -149 c0 -6 -7 -2 -15 8 -8 11 -15 25 -15 30 0 6 7 2 15 -8 8 -11
15 -25 15 -30z"/>
<path d="M3207 3426 c-21 -8 -42 -18 -45 -22 -4 -4 2 -4 13 1 58 22 95 25 135
9 22 -9 49 -28 60 -42 30 -38 24 -48 -7 -11 -34 40 -87 64 -111 49 -15 -10
-15 -10 3 -7 31 5 93 -30 110 -64 11 -21 15 -49 12 -90 -2 -32 -2 -59 -1 -59
2 0 8 10 15 21 9 17 8 20 -2 14 -9 -6 -11 -3 -6 9 4 10 7 23 8 29 0 7 4 3 8
-8 7 -18 9 -16 15 12 5 23 2 45 -12 76 -35 79 -115 113 -195 83z"/>
<path d="M1700 3413 c-34 -12 -70 -59 -86 -111 l-18 -55 28 -23 c15 -13 22
-24 15 -24 -7 0 -21 8 -32 18 -19 16 -20 16 -8 -5 6 -13 19 -23 29 -22 24 1
70 17 54 18 -23 2 -51 44 -52 78 0 24 9 40 38 67 20 20 42 36 47 36 6 0 3 -5
-5 -10 -12 -7 -8 -10 15 -10 21 0 26 -3 16 -9 -10 -7 -5 -11 18 -16 19 -4 29
-11 24 -18 -4 -6 0 -8 10 -4 10 4 20 0 26 -11 8 -12 10 -13 11 -3 0 21 -30 51
-45 45 -7 -3 -16 -1 -20 5 -10 17 27 13 53 -5 26 -18 29 -59 6 -92 -8 -12 -12
-22 -7 -22 4 0 1 -5 -7 -10 -11 -7 -12 -10 -2 -10 8 0 27 13 43 29 34 35 40
95 12 130 -25 31 -118 50 -163 34z m134 -44 c34 -27 37 -87 4 -115 l-22 -19
17 25 c21 31 22 83 1 100 -8 8 -32 17 -52 21 -36 7 -36 7 -6 8 18 1 43 -8 58
-20z m-195 -134 c16 -20 16 -20 -6 -1 -13 11 -23 26 -22 35 0 14 1 14 6 1 3
-8 13 -24 22 -35z"/>
<path d="M4201 3364 c19 -28 35 -50 37 -49 7 6 -27 61 -48 80 -17 15 -14 6 11
-31z"/>
<path d="M2641 3396 c10 -9 69 -36 69 -32 0 6 -55 36 -66 36 -4 0 -5 -2 -3 -4z"/>
<path d="M2311 3371 c22 -18 23 -22 12 -53 -11 -30 -11 -31 2 -14 8 11 15 28
15 37 0 19 -25 49 -42 49 -6 0 0 -9 13 -19z"/>
<path d="M3288 3370 c38 -24 66 -81 57 -119 -4 -20 -3 -22 5 -11 5 8 10 31 10
51 0 30 -7 43 -35 68 -20 17 -43 31 -53 31 -11 0 -5 -7 16 -20z"/>
<path d="M1202 3358 c7 -15 15 -23 17 -17 2 6 -4 18 -13 27 -15 15 -15 15 -4
-10z"/>
<path d="M1056 3345 c4 -16 7 -38 8 -47 0 -19 16 -13 16 6 0 8 -7 27 -16 42
l-16 29 8 -30z"/>
<path d="M2145 3349 c-10 -15 3 -25 16 -12 7 7 7 13 1 17 -6 3 -14 1 -17 -5z"/>
<path d="M2183 3340 c-7 -11 -30 -28 -50 -39 -21 -11 -31 -20 -23 -20 23 1 71
32 88 57 8 12 10 22 6 22 -5 0 -15 -9 -21 -20z"/>
<path d="M2720 3356 c0 -2 8 -10 18 -17 15 -13 16 -12 3 4 -13 16 -21 21 -21
13z"/>
<path d="M3260 3340 c0 -5 5 -10 10 -10 6 0 10 5 10 10 0 6 -4 10 -10 10 -5 0
-10 -4 -10 -10z"/>
<path d="M1170 3324 c50 -71 93 -124 100 -124 5 0 19 10 32 23 13 12 17 16 8
10 -20 -16 -50 -17 -50 -2 0 6 -24 34 -52 62 -29 29 -46 43 -38 31z"/>
<path d="M2280 3330 c0 -5 5 -10 10 -10 6 0 10 5 10 10 0 6 -4 10 -10 10 -5 0
-10 -4 -10 -10z"/>
<path d="M3834 3324 c9 -6 13 -14 10 -17 -3 -3 12 -15 35 -27 51 -26 54 -18 4
10 -35 19 -21 20 26 2 10 -4 12 -1 6 8 -5 9 -4 11 4 6 6 -4 9 -11 6 -15 -2 -5
4 -16 15 -26 11 -10 20 -15 20 -11 0 4 13 -2 29 -13 16 -12 34 -21 40 -21 13
0 25 44 18 62 -3 7 -6 1 -6 -14 -1 -42 -16 -41 -66 2 -50 43 -92 70 -81 51 4
-6 2 -11 -3 -11 -6 0 -11 4 -11 10 0 5 -7 6 -17 3 -9 -4 -14 -2 -10 3 3 5 -3
10 -14 10 -18 0 -18 -2 -5 -12z m126 -55 c0 -6 -4 -7 -10 -4 -5 3 -10 11 -10
16 0 6 5 7 10 4 6 -3 10 -11 10 -16z"/>
<path d="M1976 3279 c5 -41 2 -63 -10 -87 -9 -18 -14 -32 -12 -32 3 0 12 13
21 30 17 33 20 107 5 130 -7 10 -8 -2 -4 -41z"/>
<path d="M3295 3321 c-3 -6 -1 -19 4 -28 6 -10 11 -13 11 -8 1 6 5 1 10 -10 8
-16 9 -13 7 14 -2 34 -19 51 -32 32z"/>
<path d="M1159 3275 c16 -22 35 -62 42 -90 6 -27 16 -58 21 -67 14 -27 54 -22
76 10 33 48 36 58 6 23 -42 -48 -64 -40 -90 34 -12 32 -36 75 -53 94 l-32 36
30 -40z"/>
<path d="M1780 3300 c0 -5 5 -10 11 -10 5 0 7 5 4 10 -3 6 -8 10 -11 10 -2 0
-4 -4 -4 -10z"/>
<path d="M2012 3262 c-3 -62 -49 -130 -102 -151 -15 -6 -19 -10 -9 -10 28 -1
83 43 102 81 11 23 17 52 14 75 -4 37 -4 37 -5 5z"/>
<path d="M3071 3227 c-1 -43 3 -53 33 -83 19 -19 40 -34 47 -34 7 0 -4 15 -25
33 -30 25 -39 42 -45 82 l-9 50 -1 -48z"/>
<path d="M2603 3231 c73 -47 100 -97 108 -200 4 -65 7 -75 9 -41 10 119 -14
191 -81 239 -23 17 -51 31 -62 31 -15 0 -8 -8 26 -29z"/>
<path d="M2477 3239 c60 -7 110 -25 100 -36 -3 -2 -14 0 -24 5 -33 18 -100 24
-123 12 -12 -6 -19 -14 -16 -17 3 -3 13 0 21 7 13 11 26 11 73 -1 31 -7 68
-13 80 -14 17 0 34 -14 55 -43 29 -40 32 -51 32 -115 0 -69 -19 -142 -35 -132
-4 2 -17 -10 -30 -28 -22 -30 -22 -31 -2 -13 23 20 31 9 10 -12 -7 -7 -8 -12
-3 -12 5 0 -4 -14 -21 -32 l-29 -31 40 29 c22 16 45 36 52 44 15 19 24 52 12
44 -5 -3 -9 -1 -9 5 0 5 4 12 9 16 21 12 34 117 22 170 -13 58 -62 125 -92
125 -10 0 -19 4 -19 9 0 15 -60 31 -114 30 l-51 -2 62 -8z m183 -359 c0 -4
-10 -15 -22 -26 -17 -14 -20 -15 -9 -2 7 9 10 21 7 26 -3 5 1 9 9 9 8 0 15 -3
15 -7z"/>
<path d="M3041 3223 c-1 -40 25 -109 45 -117 19 -7 18 0 -6 32 -11 15 -24 47
-29 72 -8 40 -9 41 -10 13z"/>
<path d="M2111 3214 c-12 -15 -21 -36 -20 -48 1 -16 3 -14 10 9 4 16 19 37 31
47 13 10 18 18 11 18 -6 0 -21 -12 -32 -26z"/>
<path d="M866 3192 c-14 -21 -26 -42 -26 -47 0 -9 10 3 45 58 26 41 12 32 -19
-11z"/>
<path d="M1054 3220 c24 -4 49 -18 63 -34 13 -15 23 -23 23 -18 0 5 -12 21
-26 36 -20 19 -36 26 -63 25 l-36 -1 39 -8z"/>
<path d="M2169 3213 c-36 -43 -40 -55 -9 -26 19 18 32 35 29 38 -3 3 -12 -3
-20 -12z"/>
<path d="M3103 3199 c21 -53 57 -73 130 -73 49 0 72 6 100 23 46 28 49 38 5
14 -18 -9 -37 -16 -41 -15 -4 1 -17 -3 -28 -9 -23 -12 -102 -2 -94 12 4 5 -1
6 -9 3 -17 -6 -56 29 -56 50 0 8 -5 18 -10 21 -6 4 -5 -8 3 -26z"/>
<path d="M800 3180 c-27 -50 -80 -184 -80 -201 0 -20 24 -26 35 -9 3 6 1 10
-4 10 -17 0 -13 19 28 123 37 92 45 121 21 77z"/>
<path d="M3015 3160 c3 -25 10 -49 16 -54 13 -14 11 1 -6 54 l-15 45 5 -45z"/>
<path d="M1685 3164 l-60 -25 45 6 c25 3 66 9 93 12 48 6 60 16 31 27 -25 10
-45 6 -109 -20z"/>
<path d="M2030 3143 c-42 -57 -106 -93 -167 -93 -59 0 -139 -19 -153 -35 -9
-11 -4 -11 20 2 24 12 49 14 99 10 76 -6 132 9 166 45 21 22 81 118 73 118 -1
0 -19 -21 -38 -47z"/>
<path d="M2252 3177 c-12 -7 -30 -24 -39 -37 -16 -24 -15 -24 13 2 16 15 40
31 54 37 14 5 18 10 10 10 -8 0 -25 -5 -38 -12z"/>
<path d="M3476 3172 c-4 -11 -27 -39 -51 -61 -48 -44 -50 -53 -5 -21 30 21 76
87 67 96 -3 3 -8 -3 -11 -14z"/>
<path d="M1349 3119 c-30 -34 -67 -68 -84 -75 -16 -7 -24 -13 -17 -14 25 0 67
29 115 79 57 62 93 69 83 19 -4 -26 -3 -29 5 -15 18 30 7 62 -22 65 -22 3 -36
-8 -80 -59z"/>
<path d="M2564 3169 c-3 -6 -18 -8 -33 -5 l-26 6 25 -15 c31 -18 43 -19 34 -2
-4 6 5 0 20 -14 18 -17 30 -42 36 -75 l8 -49 -1 58 c0 73 -40 133 -63 96z"/>
<path d="M2741 3160 c-1 -8 6 -37 15 -65 19 -64 11 -124 -27 -195 -17 -30 -23
-46 -14 -35 68 83 88 195 47 270 -11 22 -21 33 -21 25z"/>
<path d="M4283 3156 c16 -40 77 -241 77 -251 0 -6 12 -22 26 -36 38 -35 53
-70 64 -146 l9 -68 -4 72 c-4 81 -15 108 -56 141 -16 13 -29 30 -29 38 0 21
-80 264 -87 264 -3 0 -3 -6 0 -14z"/>
<path d="M2330 3150 c0 -5 4 -10 9 -10 6 0 13 5 16 10 3 6 -1 10 -9 10 -9 0
-16 -4 -16 -10z"/>
<path d="M2430 3150 c0 -5 5 -10 10 -10 6 0 10 5 10 10 0 6 -4 10 -10 10 -5 0
-10 -4 -10 -10z"/>
<path d="M2575 3131 c6 -11 4 -13 -8 -8 -13 5 -12 -1 5 -31 28 -48 33 -52 24
-22 -4 14 -9 33 -10 42 -1 10 -6 21 -11 25 -4 5 -4 2 0 -6z"/>
<path d="M1048 3110 c39 -24 54 -59 47 -109 -4 -27 -3 -31 4 -16 5 11 10 36
10 57 1 29 -5 42 -30 62 -17 14 -38 26 -47 26 -11 0 -4 -8 16 -20z"/>
<path d="M2440 3110 c0 -5 5 -10 10 -10 6 0 10 5 10 10 0 6 -4 10 -10 10 -5 0
-10 -4 -10 -10z"/>
<path d="M2644 3100 c3 -14 6 -42 6 -63 0 -21 4 -36 9 -33 11 7 3 84 -11 106
-7 11 -8 8 -4 -10z"/>
<path d="M1595 3085 c-41 -19 -5 -19 55 -1 l45 15 -35 0 c-19 -1 -48 -7 -65
-14z"/>
<path d="M908 3080 c-19 -11 -63 -79 -56 -86 3 -2 17 14 32 36 26 39 62 58 91
46 9 -3 13 -2 10 4 -8 13 -55 12 -77 0z"/>
<path d="M1996 3049 c-21 -22 -37 -41 -35 -43 2 -3 24 16 48 40 24 24 39 44
35 43 -5 0 -27 -18 -48 -40z"/>
<path d="M2105 3044 c-10 -26 -24 -84 -31 -128 l-14 -81 5 65 c2 36 7 81 10
100 3 24 0 19 -10 -15 -8 -27 -15 -71 -15 -96 0 -60 17 -151 32 -164 8 -7 9
-5 3 10 -4 11 -9 38 -12 60 -4 39 -4 39 15 -14 11 -29 29 -63 41 -75 19 -18
18 -14 -6 29 -26 46 -28 58 -27 155 1 71 6 119 18 149 9 24 15 46 13 48 -2 2
-12 -18 -22 -43z"/>
<path d="M2240 3070 c0 -5 5 -10 10 -10 6 0 10 5 10 10 0 6 -4 10 -10 10 -5 0
-10 -4 -10 -10z"/>
<path d="M2552 3055 c0 -16 2 -22 5 -12 2 9 2 23 0 30 -3 6 -5 -1 -5 -18z"/>
<path d="M2498 3062 c-23 -5 -31 -33 -14 -50 18 -18 46 -9 46 15 0 26 -13 39
-32 35z"/>
<path d="M1655 3049 c-11 -6 -30 -23 -42 -37 l-22 -27 -37 35 -36 35 32 -47
c17 -27 36 -48 42 -48 6 0 28 18 48 40 20 21 47 44 61 49 l24 10 -25 0 c-14 0
-34 -4 -45 -10z"/>
<path d="M4100 3028 c-14 -24 -20 -50 -19 -93 l1 -60 14 65 c7 35 23 73 33 84
20 20 21 20 42 0 12 -10 32 -40 45 -66 28 -56 32 -78 4 -28 -26 47 -25 20 0
-30 11 -22 27 -66 35 -98 l13 -57 -2 65 c-3 70 -30 150 -71 211 -33 51 -67 53
-95 7z m160 -173 c0 -5 -5 -3 -10 5 -5 8 -10 20 -10 25 0 6 5 3 10 -5 5 -8 10
-19 10 -25z"/>
<path d="M2130 3030 c0 -5 5 -10 10 -10 6 0 10 5 10 10 0 6 -4 10 -10 10 -5 0
-10 -4 -10 -10z"/>
<path d="M672 2945 c0 -44 3 -105 7 -135 l7 -55 7 50 c4 30 1 84 -7 135 l-14
85 0 -80z"/>
<path d="M805 3001 c-3 -11 -14 -22 -23 -24 -16 -4 -16 -5 0 -6 17 -1 45 36
35 46 -3 2 -8 -5 -12 -16z"/>
<path d="M1140 2994 c-6 -14 -10 -33 -9 -42 0 -9 6 -1 13 18 15 40 26 43 43 9
12 -22 13 -22 13 -3 0 45 -45 59 -60 18z"/>
<path d="M4145 3008 c11 -6 28 -21 37 -32 10 -12 17 -16 18 -10 0 15 -44 54
-61 54 -9 -1 -7 -5 6 -12z"/>
<path d="M1765 2999 c-43 -25 -76 -65 -95 -117 -11 -29 -27 -67 -35 -83 -9
-16 -13 -29 -10 -29 3 0 24 38 45 85 36 77 44 88 82 105 24 11 59 20 78 20 22
0 31 3 24 10 -16 16 -68 21 -89 9z"/>
<path d="M1395 2990 c-13 -6 -4 -7 27 -3 41 5 53 2 81 -20 19 -14 41 -41 50
-59 9 -18 17 -27 17 -20 0 23 -29 69 -56 91 -28 22 -82 27 -119 11z"/>
<path d="M2412 2989 c2 -6 8 -10 13 -10 5 0 11 4 13 10 2 6 -4 11 -13 11 -9 0
-15 -5 -13 -11z"/>
<path d="M902 2975 c-85 -37 -75 -195 12 -195 59 0 129 164 84 197 -21 14 -61
14 -96 -2z m96 -26 c-3 -8 -7 -3 -11 10 -4 17 -3 21 5 13 5 -5 8 -16 6 -23z
m-20 -21 c2 -21 -1 -38 -6 -38 -5 0 -12 -9 -15 -20 -6 -24 8 -27 17 -4 4 9 9
14 13 10 9 -8 -38 -57 -48 -50 -5 3 -6 -1 -3 -9 9 -25 -38 -29 -61 -6 -28 27
-28 101 0 127 27 25 44 31 75 29 21 -2 25 -8 28 -39z"/>
<path d="M942 2948 c9 -7 18 -20 21 -28 3 -8 6 -3 6 13 1 21 -3 27 -21 27 -19
0 -20 -2 -6 -12z"/>
<path d="M905 2920 c-3 -5 -1 -10 4 -10 6 0 11 5 11 10 0 6 -2 10 -4 10 -3 0
-8 -4 -11 -10z"/>
<path d="M1941 2951 c-1 -40 -3 -43 -23 -36 -13 3 -32 8 -43 9 -11 2 -13 1 -4
-1 10 -2 25 -13 35 -24 9 -10 23 -19 30 -19 19 0 28 46 16 83 l-10 32 -1 -44z"/>
<path d="M4143 2980 c19 -12 51 -70 78 -145 15 -40 18 -43 13 -15 -11 59 -67
165 -89 168 -18 2 -19 2 -2 -8z"/>
<path d="M2024 2924 c-7 -61 0 -136 16 -162 8 -13 9 -6 4 27 -3 24 -6 77 -6
117 0 41 -2 74 -3 74 -2 0 -7 -25 -11 -56z"/>
<path d="M635 2959 c-4 -6 -5 -12 -2 -15 2 -3 7 2 10 11 7 17 1 20 -8 4z"/>
<path d="M1224 2935 c-35 -37 -75 -144 -73 -194 1 -18 4 -14 9 16 19 95 58
157 126 200 18 11 18 12 -5 12 -15 1 -36 -12 -57 -34z"/>
<path d="M3021 2953 c7 -12 15 -20 18 -17 3 2 -3 12 -13 22 -17 16 -18 16 -5
-5z"/>
<path d="M3991 2954 c0 -11 3 -14 6 -6 3 7 2 16 -1 19 -3 4 -6 -2 -5 -13z"/>
<path d="M1037 2953 c-4 -3 -7 -22 -7 -42 0 -20 -9 -55 -20 -78 -10 -24 -17
-43 -15 -43 11 0 46 85 52 125 6 44 3 52 -10 38z"/>
<path d="M1626 2952 c-2 -4 -7 -25 -11 -47 l-6 -40 20 44 c12 24 21 45 21 47
0 7 -19 4 -24 -4z"/>
<path d="M2996 2933 c9 -47 -10 -85 -58 -116 -23 -15 -38 -27 -33 -27 15 0 79
40 93 58 14 19 16 81 2 102 -7 11 -8 6 -4 -17z"/>
<path d="M2111 2934 c0 -11 3 -14 6 -6 3 7 2 16 -1 19 -3 4 -6 -2 -5 -13z"/>
<path d="M4137 2944 c-8 -8 1 -24 14 -24 5 0 9 7 9 15 0 15 -12 20 -23 9z"/>
<path d="M730 2921 c-5 -11 -9 -64 -9 -118 2 -89 2 -93 9 -43 5 30 8 79 9 108
1 28 6 52 11 52 6 0 10 5 10 10 0 17 -19 11 -30 -9z"/>
<path d="M1324 2926 c-17 -7 -40 -26 -52 -41 -23 -29 -29 -51 -12 -40 15 9 12
-7 -5 -29 -16 -22 -19 -36 -7 -36 4 0 15 19 26 41 10 23 21 37 25 31 3 -5 15
0 26 11 20 20 20 20 -2 8 -16 -8 -22 -8 -26 3 -8 19 47 41 102 41 38 0 47 -5
78 -40 33 -38 35 -43 30 -97 -3 -32 -4 -58 -2 -58 2 0 10 21 19 46 15 44 15
49 -3 90 -11 23 -31 50 -46 60 -35 23 -112 28 -151 10z m-42 -68 c-7 -7 -12
-8 -12 -2 0 14 12 26 19 19 2 -3 -1 -11 -7 -17z"/>
<path d="M2003 2885 c0 -33 2 -45 4 -27 2 18 2 45 0 60 -2 15 -4 0 -4 -33z"/>
<path d="M2567 2934 c-14 -15 -6 -34 14 -34 14 0 19 5 17 17 -3 18 -20 27 -31
17z"/>
<path d="M2950 2925 c0 -8 7 -15 15 -15 8 0 15 7 15 15 0 8 -7 15 -15 15 -8 0
-15 -7 -15 -15z"/>
<path d="M618 2850 c-4 -47 -17 -114 -28 -150 -11 -36 -19 -78 -19 -95 2 -27
2 -27 6 -5 3 14 16 69 29 122 16 63 24 117 22 155 -3 56 -3 55 -10 -27z"/>
<path d="M1740 2877 c-32 -29 -70 -78 -70 -91 0 -11 88 79 99 102 15 28 13 28
-29 -11z"/>
<path d="M1379 2888 c26 -7 31 -12 20 -19 -8 -5 -11 -9 -7 -9 3 0 14 -3 24 -7
13 -5 15 -3 9 8 -4 8 3 4 15 -8 15 -14 23 -33 22 -52 0 -20 3 -29 10 -25 6 4
8 22 5 40 -4 23 -2 32 5 28 6 -4 6 1 -1 14 -6 12 -17 24 -24 28 -9 5 -9 4 1
-7 24 -26 11 -28 -24 -4 -20 14 -49 25 -63 24 -23 -1 -22 -2 8 -11z"/>
<path d="M2768 2860 c-9 -16 -32 -38 -50 -49 -39 -23 -68 -51 -68 -65 0 -5 12
2 28 15 15 14 39 33 54 42 15 10 35 31 44 48 20 40 14 47 -8 9z"/>
<path d="M1776 2848 c-18 -18 -45 -41 -60 -51 -43 -29 -34 -59 38 -132 50 -50
72 -65 93 -65 31 0 53 16 53 38 0 8 16 32 35 53 29 32 34 44 29 67 -10 38 -30
76 -50 93 -10 8 -15 9 -11 2 5 -8 -4 -10 -31 -7 -20 2 -44 -2 -52 -7 -13 -9
-12 -10 3 -5 9 3 17 2 17 -2 0 -4 14 -15 30 -24 17 -9 30 -22 30 -28 0 -6 -4
-8 -10 -5 -6 4 -7 -1 -3 -11 5 -15 7 -15 16 1 7 13 4 25 -12 46 -12 16 -17 29
-11 29 5 0 23 -21 39 -47 33 -52 31 -60 -18 -107 -26 -25 -31 -27 -31 -11 0
23 -9 15 -15 -14 -2 -11 0 -21 6 -21 5 0 9 -4 9 -10 0 -5 -10 -10 -23 -10 -15
0 -45 21 -81 54 -47 45 -57 60 -54 83 2 20 12 32 35 42 18 8 35 23 39 34 3 10
20 25 37 32 27 12 28 14 10 15 -12 0 -38 -15 -57 -32z m152 -33 c-3 -3 -9 2
-12 12 -6 14 -5 15 5 6 7 -7 10 -15 7 -18z"/>
<path d="M2111 2839 c-1 -20 10 -58 26 -88 21 -44 34 -57 71 -73 62 -28 138
-21 225 19 87 41 87 50 0 12 -52 -22 -84 -29 -135 -29 -82 0 -112 13 -141 59
-23 38 -23 37 -36 96 l-9 40 -1 -36z"/>
<path d="M2555 2859 c-4 -6 -5 -12 -2 -15 2 -3 7 2 10 11 7 17 1 20 -8 4z"/>
<path d="M1048 2823 c-9 -22 -31 -52 -48 -67 -36 -30 -25 -36 12 -6 28 21 62
84 56 102 -3 7 -12 -6 -20 -29z"/>
<path d="M640 2802 c0 -27 -7 -70 -16 -96 -9 -26 -14 -49 -12 -52 3 -2 15 25
27 61 22 69 28 135 11 135 -5 0 -10 -22 -10 -48z"/>
<path d="M1335 2840 c4 -6 11 -8 16 -5 14 9 11 15 -7 15 -8 0 -12 -5 -9 -10z"/>
<path d="M820 2837 c0 -4 7 -21 15 -36 15 -31 34 -42 68 -40 16 1 13 3 -11 10
-20 6 -40 22 -52 42 -11 18 -20 28 -20 24z"/>
<path d="M1960 2832 c0 -12 19 -26 26 -19 2 2 -2 10 -11 17 -9 8 -15 8 -15 2z"/>
<path d="M1482 2784 c-16 -57 -17 -81 -7 -111 5 -14 3 -23 -3 -23 -6 0 -14 16
-18 35 -8 46 -26 46 -20 0 3 -19 0 -37 -5 -40 -5 -4 -9 -13 -9 -21 0 -8 5 -12
10 -9 6 4 8 11 5 16 -6 9 7 13 39 9 15 -1 18 4 14 31 -5 29 -4 30 9 14 7 -11
13 -15 13 -10 0 5 -7 16 -15 25 -11 13 -12 24 -4 54 6 20 9 47 7 58 -2 14 -8
5 -16 -28z"/>
<path d="M2812 2823 c-7 -3 -29 -37 -48 -76 -20 -40 -46 -80 -57 -90 -20 -17
-20 -17 -2 -9 28 14 46 37 89 111 38 66 40 71 18 64z"/>
<path d="M1432 2811 c4 -13 18 -16 19 -4 0 4 -5 9 -11 12 -7 2 -11 -2 -8 -8z"/>
<path d="M1812 2798 c-17 -17 -15 -35 5 -42 21 -8 36 6 31 30 -4 22 -20 28
-36 12z"/>
<path d="M3189 2783 l-24 -28 28 24 c15 14 27 26 27 28 0 8 -8 1 -31 -24z"/>
<path d="M3332 2799 c-19 -6 -53 -30 -77 -54 -52 -52 -70 -103 -57 -160 l10
-40 1 52 c1 42 7 59 34 94 56 74 149 107 224 78 45 -17 104 -79 97 -104 -4
-14 -3 -16 4 -7 7 11 10 10 16 -3 3 -9 6 -24 5 -33 -1 -10 -4 -7 -9 8 -8 23
-8 24 -9 3 -1 -12 4 -34 11 -48 9 -19 8 -31 -1 -52 -9 -20 -9 -25 -1 -17 17
17 29 81 23 121 -3 19 -20 56 -37 82 -52 77 -139 107 -234 80z"/>
<path d="M3921 2775 c-45 -51 -38 -61 9 -13 22 23 40 43 40 45 0 12 -23 -2
-49 -32z"/>
<path d="M820 2787 c0 -21 23 -47 43 -46 l22 0 -22 9 c-12 5 -26 17 -32 27 -6
10 -11 14 -11 10z"/>
<path d="M1370 2775 c0 -10 7 -15 18 -13 21 4 19 22 -2 26 -10 2 -16 -3 -16
-13z"/>
<path d="M1070 2749 c-14 -26 -91 -59 -136 -59 -19 0 -50 7 -69 14 -19 8 -35
13 -35 10 0 -3 16 -12 35 -20 74 -31 183 -6 211 47 8 16 12 29 10 29 -3 0 -10
-9 -16 -21z"/>
<path d="M3391 2751 c80 -15 137 -57 155 -113 11 -37 -4 -30 -25 11 -12 22
-34 47 -51 56 -46 24 -60 17 -15 -8 25 -14 46 -37 59 -64 27 -55 46 -63 46
-19 0 41 -34 94 -77 118 -17 10 -55 21 -85 23 l-53 4 46 -8z"/>
<path d="M1866 2741 c-4 -5 -2 -12 3 -15 5 -4 12 -2 15 3 4 5 2 12 -3 15 -5 4
-12 2 -15 -3z"/>
<path d="M4031 2721 c-25 -59 48 -227 121 -280 l33 -24 -37 39 c-56 60 -103
166 -103 237 0 31 -1 57 -1 57 -1 0 -7 -13 -13 -29z"/>
<path d="M3997 2733 c-21 -20 11 -149 48 -199 8 -10 2 10 -12 46 -14 36 -27
86 -27 112 -1 27 -1 48 -2 48 0 0 -4 -3 -7 -7z"/>
<path d="M4271 2724 c0 -11 3 -14 6 -6 3 7 2 16 -1 19 -3 4 -6 -2 -5 -13z"/>
<path d="M1889 2713 c-13 -16 -12 -17 4 -4 16 13 21 21 13 21 -2 0 -10 -8 -17
-17z"/>
<path d="M1963 2688 c-18 -22 -33 -45 -33 -50 0 -6 16 9 35 33 30 37 42 61 33
58 -2 0 -18 -18 -35 -41z"/>
<path d="M3322 2719 c2 -6 8 -10 13 -10 5 0 11 4 13 10 2 6 -4 11 -13 11 -9 0
-15 -5 -13 -11z"/>
<path d="M3380 2710 c0 -5 5 -10 10 -10 6 0 10 5 10 10 0 6 -4 10 -10 10 -5 0
-10 -4 -10 -10z"/>
<path d="M3956 2711 c-6 -9 7 -88 17 -97 2 -3 3 18 2 46 -3 54 -9 68 -19 51z"/>
<path d="M772 2693 c-5 -10 -12 -34 -15 -53 -3 -19 -8 -44 -12 -55 -4 -13 -1
-11 8 5 8 14 17 42 21 63 4 20 9 37 12 37 3 0 17 -9 32 -20 15 -11 43 -22 62
-25 l35 -5 -35 11 c-19 6 -49 22 -67 35 -30 23 -33 23 -41 7z"/>
<path d="M1557 2669 c8 -69 -31 -138 -107 -192 -25 -17 -25 -17 6 -3 45 22
112 102 120 143 4 23 1 46 -9 67 l-16 31 6 -46z"/>
<path d="M2002 2674 c-28 -24 -41 -42 -38 -53 7 -21 -3 -35 -39 -54 -16 -9
-25 -16 -20 -17 25 0 75 41 75 62 0 12 17 39 37 60 46 48 41 48 -15 2z"/>
<path d="M2455 2684 c-33 -14 -76 -32 -95 -40 -26 -10 -29 -13 -13 -14 11 0
65 18 120 40 56 23 87 40 73 40 -14 0 -52 -12 -85 -26z"/>
<path d="M1171 2684 c0 -11 3 -14 6 -6 3 7 2 16 -1 19 -3 4 -6 -2 -5 -13z"/>
<path d="M1196 2678 c-10 -41 -6 -118 8 -146 32 -61 83 -87 139 -71 40 11 122
81 143 121 13 24 7 21 -34 -19 -67 -66 -81 -76 -97 -69 -8 3 -14 0 -12 -7 3
-18 -38 -20 -72 -3 -16 9 -33 26 -37 38 -4 13 -11 26 -17 29 -5 4 -10 39 -9
78 0 39 -1 71 -3 71 -1 0 -5 -10 -9 -22z"/>
<path d="M1742 2647 c31 -31 60 -57 64 -57 11 0 -56 68 -91 93 -16 11 -4 -5
27 -36z"/>
<path d="M1698 2658 c13 -14 19 -27 13 -29 -5 -2 -1 -15 10 -29 17 -21 19 -22
10 -3 -18 36 -13 38 21 7 l31 -29 -27 37 c-15 20 -39 44 -54 54 l-27 17 23
-25z"/>
<path d="M3292 2671 c2 -7 7 -12 11 -12 12 1 9 15 -3 20 -7 2 -11 -2 -8 -8z"/>
<path d="M3414 2668 c-10 -16 5 -21 22 -7 14 12 19 10 36 -10 13 -17 15 -26 7
-31 -6 -4 -7 -10 -2 -13 5 -3 15 -2 23 3 12 8 11 14 -6 37 -21 28 -68 40 -80
21z"/>
<path d="M2120 2646 c0 -14 -5 -17 -20 -12 -11 3 -29 9 -39 12 -15 5 -26 -4
-45 -35 -14 -22 -39 -47 -56 -56 -33 -17 -41 -28 -12 -18 35 13 63 37 78 65
14 27 18 29 55 23 31 -5 40 -3 45 10 4 9 4 19 0 22 -3 4 -6 -2 -6 -11z"/>
<path d="M2530 2648 c19 -5 46 -11 60 -14 l25 -5 -25 15 c-14 8 -41 15 -60 15
l-35 -1 35 -10z"/>
<path d="M632 2547 c-38 -120 -41 -144 -7 -67 23 53 51 158 43 165 -2 2 -18
-42 -36 -98z"/>
<path d="M1673 2602 c26 -28 47 -57 47 -63 0 -7 3 -9 6 -6 14 13 -19 63 -59
91 l-42 30 48 -52z"/>
<path d="M812 2618 c2 -12 10 -23 18 -23 22 0 19 39 -3 43 -15 3 -18 -1 -15
-20z"/>
<path d="M1055 2615 c14 -69 13 -70 -35 -75 l-45 -5 45 -7 c71 -11 87 16 49
82 l-20 35 6 -30z"/>
<path d="M2175 2622 c-5 -4 -17 -16 -25 -27 -15 -20 -15 -20 8 -1 20 17 27 18
56 8 18 -7 46 -12 62 -11 25 0 23 3 -21 19 -57 21 -66 23 -80 12z"/>
<path d="M2500 2621 c9 -5 45 -12 80 -15 48 -4 54 -3 25 3 -98 20 -120 22
-105 12z"/>
<path d="M4462 2522 c-1 -62 -8 -116 -16 -137 -18 -43 -12 -46 9 -5 12 23 15
55 12 138 l-3 107 -2 -103z"/>
<path d="M601 2551 c-11 -27 -20 -62 -20 -78 2 -26 2 -27 6 -3 3 13 14 46 24
73 26 65 18 72 -10 8z"/>
<path d="M1111 2563 c-1 -50 -18 -63 -81 -63 -36 0 -120 -32 -120 -46 0 -2 10
1 23 8 12 7 56 15 97 18 69 5 76 7 88 32 9 20 10 37 3 60 l-9 33 -1 -42z"/>
<path d="M1663 2578 c12 -13 24 -19 25 -15 5 11 -18 37 -34 37 -9 0 -5 -8 9
-22z"/>
<path d="M2032 2570 c-24 -33 -27 -40 -12 -40 6 0 9 3 8 8 -2 4 5 18 14 31 12
16 23 22 37 18 12 -3 19 -1 15 4 -11 18 -41 8 -62 -21z"/>
<path d="M2442 2584 c-12 -8 -22 -22 -22 -31 0 -11 5 -9 18 7 10 12 36 26 58
30 l39 8 -35 1 c-20 0 -46 -6 -58 -15z"/>
<path d="M3980 2591 c0 -6 4 -13 10 -16 6 -3 7 1 4 9 -7 18 -14 21 -14 7z"/>
<path d="M4426 2570 c22 -114 23 -118 19 -58 -2 31 -9 65 -15 75 -9 15 -10 11
-4 -17z"/>
<path d="M1015 2580 c-8 -14 3 -30 21 -30 8 0 14 9 14 20 0 21 -24 28 -35 10z"/>
<path d="M3502 2570 c0 -14 2 -19 5 -12 2 6 2 18 0 25 -3 6 -5 1 -5 -13z"/>
<path d="M2190 2560 c0 -13 5 -20 13 -17 6 2 12 10 12 17 0 7 -6 15 -12 18 -8
2 -13 -5 -13 -18z"/>
<path d="M4112 2541 c26 -48 90 -111 114 -111 28 0 52 19 63 51 18 52 11 67
-9 21 -11 -23 -26 -45 -35 -48 -25 -10 -68 24 -143 115 -8 9 -3 -4 10 -28z"/>
<path d="M4406 2545 c4 -22 11 -62 14 -90 l7 -50 1 50 c1 28 -5 68 -14 90
l-15 40 7 -40z"/>
<path d="M1171 2555 c-2 -50 90 -148 121 -129 5 3 -9 15 -32 26 -41 20 -55 38
-77 93 -8 22 -12 25 -12 10z"/>
<path d="M1631 2549 c9 -18 6 -26 -18 -51 -24 -26 -25 -29 -6 -19 32 17 46 46
33 71 -6 11 -13 20 -16 20 -2 0 0 -9 7 -21z"/>
<path d="M3170 2562 c0 -38 59 -132 84 -132 5 0 -2 12 -17 28 -14 15 -35 47
-46 72 -11 25 -21 39 -21 32z"/>
<path d="M3660 2554 c-1 -10 -7 -37 -15 -59 -12 -35 -12 -38 0 -21 17 22 31
84 21 93 -3 4 -6 -2 -6 -13z"/>
<path d="M2485 2540 c-3 -5 -1 -10 4 -10 6 0 11 5 11 10 0 6 -2 10 -4 10 -3 0
-8 -4 -11 -10z"/>
<path d="M3798 2544 c-5 -4 -8 -21 -7 -38 0 -30 0 -30 10 -7 11 27 8 57 -3 45z"/>
<path d="M4227 2514 c-10 -13 -13 -24 -8 -24 10 0 36 39 29 45 -2 2 -11 -8
-21 -21z"/>
<path d="M1564 2519 c-3 -6 -44 -35 -89 -64 -46 -30 -86 -59 -91 -66 -4 -6 6
-3 22 8 16 11 52 34 80 51 46 29 106 82 91 82 -3 0 -9 -5 -13 -11z"/>
<path d="M1741 2494 c-16 -45 -4 -59 29 -33 21 17 22 19 3 10 -31 -16 -33 -14
-20 19 7 18 15 26 22 21 5 -5 21 -12 35 -15 19 -5 16 -2 -10 13 -19 11 -37 20
-40 21 -4 0 -12 -16 -19 -36z"/>
<path d="M3155 2510 c8 -30 35 -74 41 -67 2 2 -7 24 -21 48 -16 27 -24 34 -20
19z"/>
<path d="M1166 2500 c14 -51 52 -90 86 -90 7 0 -2 12 -21 27 -18 14 -42 40
-53 57 -17 27 -19 28 -12 6z"/>
<path d="M4255 2509 c-4 -6 -5 -12 -2 -15 2 -3 7 2 10 11 7 17 1 20 -8 4z"/>
<path d="M810 2491 c-49 -26 -78 -90 -84 -182 l-5 -74 10 65 c14 90 45 150 91
175 21 11 38 23 38 28 0 11 -13 8 -50 -12z"/>
<path d="M2018 2503 c6 -2 18 -2 25 0 6 3 1 5 -13 5 -14 0 -19 -2 -12 -5z"/>
<path d="M2303 2479 c21 -17 51 -57 66 -88 32 -62 71 -106 71 -79 0 9 -7 21
-15 28 -8 7 -27 34 -41 60 -16 29 -44 61 -73 80 l-46 32 38 -33z"/>
<path d="M2401 2478 c21 -38 29 -46 29 -29 0 6 -11 23 -25 38 l-26 28 22 -37z"/>
<path d="M2101 2486 c86 -23 175 -92 242 -186 17 -25 17 -25 3 6 -43 91 -181
195 -256 193 -35 0 -34 0 11 -13z"/>
<path d="M2719 2479 c-17 -32 -2 -82 33 -115 l31 -29 -27 48 c-20 35 -27 59
-24 83 5 40 3 42 -13 13z"/>
<path d="M2804 2475 c-16 -24 -15 -36 1 -80 6 -16 5 -18 -5 -8 -7 6 -16 26
-20 45 l-8 33 -1 -30 c-1 -36 27 -84 39 -65 6 9 12 9 30 0 31 -16 69 -4 80 26
12 32 13 55 2 36 -6 -8 -13 -1 -25 23 -9 19 -23 35 -31 35 -11 0 -8 -7 9 -25
28 -27 33 -73 10 -81 -28 -11 -62 5 -75 36 -10 25 -10 34 4 55 9 14 14 25 11
25 -2 0 -12 -11 -21 -25z"/>
<path d="M1151 2478 c-1 -9 10 -30 24 -45 13 -15 25 -23 25 -17 0 6 -7 18 -16
25 -9 7 -20 22 -24 34 -7 16 -9 17 -9 3z"/>
<path d="M1646 2464 c-5 -14 -4 -15 9 -4 17 14 19 20 6 20 -5 0 -12 -7 -15
-16z"/>
<path d="M2460 2443 c11 -24 27 -43 35 -43 10 0 8 7 -8 23 -12 13 -28 32 -35
43 -7 10 -3 0 8 -23z"/>
<path d="M2128 2440 c74 -35 172 -124 201 -183 12 -23 21 -36 21 -29 0 26 -43
95 -86 139 -41 40 -154 103 -186 103 -7 0 15 -13 50 -30z"/>
<path d="M2630 2460 c0 -5 5 -10 11 -10 5 0 7 5 4 10 -3 6 -8 10 -11 10 -2 0
-4 -4 -4 -10z"/>
<path d="M3783 2448 c-15 -20 -25 -38 -20 -38 3 0 12 11 21 25 17 26 16 35 -1
13z"/>
<path d="M636 2401 c-30 -103 -30 -128 7 -281 40 -164 96 -345 104 -336 3 3 1
18 -6 33 -10 24 -47 183 -96 411 -13 60 -8 157 11 206 3 9 4 16 0 16 -3 0 -12
-22 -20 -49z"/>
<path d="M940 2429 c-36 -22 -79 -67 -80 -84 0 -5 7 0 15 13 30 42 97 72 159
72 32 0 66 -5 78 -11 11 -6 22 -8 25 -6 3 3 -9 13 -26 21 -44 23 -128 21 -171
-5z"/>
<path d="M1521 2424 c-12 -15 -21 -31 -21 -35 0 -5 -6 -9 -12 -9 -21 0 -108
-87 -107 -106 0 -11 4 -28 9 -39 7 -17 9 -15 9 11 1 36 66 124 93 124 9 0 20
10 24 23 3 12 13 30 22 40 8 9 12 17 9 17 -3 0 -15 -12 -26 -26z"/>
<path d="M2088 2416 c57 -28 125 -76 118 -84 -3 -2 -23 10 -46 28 -23 18 -43
30 -46 27 -3 -3 12 -17 33 -31 20 -14 34 -26 31 -26 -4 0 10 -28 32 -62 22
-33 40 -68 40 -77 0 -8 -13 5 -28 30 -16 24 -39 53 -52 64 -21 18 -21 17 3
-16 28 -38 35 -55 16 -43 -7 4 -7 -2 1 -17 18 -34 24 -38 15 -9 -9 29 -3 25
15 -9 8 -15 8 -21 1 -17 -14 9 -14 -4 -1 -24 5 -8 10 -10 11 -5 0 6 4 1 9 -10
7 -17 9 -16 10 10 2 30 2 30 10 5 12 -37 11 -50 -1 -47 -6 1 -14 -4 -17 -12
-3 -10 0 -11 9 -5 12 7 12 5 0 -9 -9 -12 -10 -17 -2 -17 7 0 19 16 27 35 18
43 7 95 -33 159 -15 23 -26 43 -25 46 1 3 -2 5 -7 5 -5 0 -13 4 -18 9 -4 5 -3
6 4 3 6 -4 13 -2 15 4 7 20 67 -84 79 -138 21 -90 -3 -131 -95 -157 -37 -11
-61 -25 -72 -41 -9 -14 -20 -23 -24 -20 -4 2 -18 -7 -30 -20 -18 -19 -26 -22
-32 -13 -5 8 -7 2 -4 -15 4 -24 2 -27 -20 -23 -25 5 -54 -16 -54 -38 0 -23
-30 -40 -74 -42 -33 -1 -49 6 -83 33 -23 18 -41 39 -39 46 1 7 1 8 -2 4 -2 -4
-10 -3 -18 4 -30 25 -14 -17 19 -48 39 -39 75 -53 131 -53 45 0 68 16 80 58 6
18 15 22 46 22 33 0 46 7 92 54 36 35 66 56 89 60 87 18 129 60 129 129 0 122
-138 284 -265 312 -20 4 -13 -2 23 -19z"/>
<path d="M805 2393 c-36 -53 -31 -60 10 -14 36 40 42 51 25 51 -5 0 -21 -17
-35 -37z"/>
<path d="M1313 2417 c-18 -6 -33 -15 -33 -19 0 -11 13 -10 44 2 32 12 32 12 1
-46 -14 -26 -25 -60 -25 -76 0 -20 -4 -27 -12 -22 -7 4 -8 3 -4 -5 12 -18 23
-5 30 36 3 21 17 59 30 84 14 26 22 49 19 53 -7 7 -7 7 -50 -7z"/>
<path d="M1534 2366 c-65 -67 -94 -105 -53 -70 13 12 32 24 42 27 9 4 22 19
29 34 6 15 21 38 32 51 40 46 9 19 -50 -42z"/>
<path d="M1790 2408 c-75 -38 -132 -131 -138 -228 -8 -148 -7 -159 12 -177 18
-17 18 -17 7 4 -16 32 -14 80 6 110 9 14 16 40 15 59 -5 69 58 197 111 225 12
7 46 11 77 10 65 -3 62 9 -4 13 -31 2 -59 -3 -86 -16z"/>
<path d="M1973 2423 c9 -2 25 -2 35 0 9 3 1 5 -18 5 -19 0 -27 -2 -17 -5z"/>
<path d="M1635 2406 c-17 -7 -37 -21 -45 -31 -14 -18 -14 -18 10 -2 13 9 32
17 42 17 16 0 34 17 27 25 -2 2 -18 -2 -34 -9z"/>
<path d="M1675 2379 c-71 -47 -93 -67 -107 -94 -7 -14 0 -10 23 11 19 18 48
39 64 47 25 13 98 79 84 76 -2 0 -31 -18 -64 -40z"/>
<path d="M1968 2403 c7 -3 16 -2 19 1 4 3 -2 6 -13 5 -11 0 -14 -3 -6 -6z"/>
<path d="M2440 2400 c0 -6 15 -17 34 -25 19 -8 37 -19 41 -24 3 -6 20 -20 38
-32 l32 -22 -35 37 c-37 40 -110 84 -110 66z"/>
<path d="M1216 2375 c3 -16 11 -34 16 -40 6 -6 7 1 2 20 -3 17 -11 35 -16 40
-6 6 -7 -1 -2 -20z"/>
<path d="M2065 2384 c17 -9 46 -30 65 -47 29 -26 28 -25 -5 10 -22 22 -51 44
-65 47 -22 6 -21 5 5 -10z"/>
<path d="M2590 2390 c0 -5 5 -10 10 -10 6 0 10 5 10 10 0 6 -4 10 -10 10 -5 0
-10 -4 -10 -10z"/>
<path d="M960 2372 c-34 -17 -100 -93 -100 -115 0 -7 6 -3 12 8 19 36 62 76
101 96 35 18 46 29 30 29 -5 0 -24 -8 -43 -18z"/>
<path d="M2681 2370 c-3 -51 -21 -59 -86 -35 -17 6 -17 4 4 -14 47 -42 96 -19
88 41 -3 25 -4 27 -6 8z"/>
<path d="M672 2360 c0 -14 2 -19 5 -12 2 6 2 18 0 25 -3 6 -5 1 -5 -13z"/>
<path d="M1119 2359 c61 -27 114 -72 150 -126 35 -53 42 -49 9 6 -47 79 -128
142 -180 140 -17 0 -12 -5 21 -20z"/>
<path d="M3225 2370 c11 -5 42 -14 69 -21 26 -7 62 -24 79 -38 26 -22 29 -23
19 -5 -13 25 -89 59 -147 67 -26 3 -33 2 -20 -3z"/>
<path d="M2625 2361 c-7 -12 12 -24 25 -16 11 7 4 25 -10 25 -5 0 -11 -4 -15
-9z"/>
<path d="M587 2247 c19 -148 40 -246 84 -383 21 -67 39 -140 39 -161 0 -30 13
-61 50 -124 73 -125 77 -126 15 -6 -36 72 -55 120 -55 144 0 19 -11 67 -25
105 -45 125 -84 299 -100 456 -4 34 -10 64 -14 66 -4 3 -1 -41 6 -97z"/>
<path d="M994 2336 c-57 -25 -115 -130 -113 -205 0 -21 3 -19 13 14 30 95 92
165 147 165 48 0 169 -73 169 -102 0 -6 -18 6 -41 27 -43 39 -96 66 -126 64
-10 0 0 -7 22 -15 22 -8 44 -20 50 -26 7 -8 4 -9 -10 -3 -42 16 -59 16 -30 0
83 -45 129 -125 145 -247 l9 -73 -3 76 c-3 86 -35 169 -82 212 -16 15 -24 27
-17 27 15 0 59 -53 85 -104 14 -27 23 -69 27 -126 6 -76 7 -81 14 -45 5 22 13
47 18 55 8 11 9 9 4 -9 -4 -13 -9 -48 -10 -77 -3 -41 -10 -62 -30 -87 -76 -91
-183 -88 -269 6 l-28 32 21 -35 c11 -19 39 -48 62 -65 33 -24 51 -30 94 -30
64 0 97 21 139 89 23 37 30 61 34 123 5 74 4 76 -17 70 -17 -4 -21 -1 -21 21
0 15 -9 47 -21 71 -11 25 -17 51 -14 59 9 24 -40 88 -87 115 -57 33 -96 39
-134 23z"/>
<path d="M661 2309 c-2 -43 27 -188 53 -269 46 -141 29 -43 -42 255 -8 31 -10
34 -11 14z"/>
<path d="M3308 2315 c24 -7 51 -19 61 -27 9 -7 4 -1 -11 15 -20 19 -38 27 -61
26 -31 0 -31 -1 11 -14z"/>
<path d="M1994 2305 c-3 -8 -3 -19 0 -24 9 -13 36 -2 36 14 0 19 -30 27 -36
10z"/>
<path d="M4406 2289 c-3 -19 -10 -70 -16 -114 -6 -44 -25 -132 -40 -195 -30
-118 -33 -164 -6 -69 37 126 84 395 72 407 -3 2 -7 -11 -10 -29z"/>
<path d="M2090 2300 c0 -5 5 -10 10 -10 6 0 10 5 10 10 0 6 -4 10 -10 10 -5 0
-10 -4 -10 -10z"/>
<path d="M1503 2292 c-7 -4 -19 -26 -28 -47 -14 -37 -14 -38 0 -20 17 20 48
75 43 75 -2 0 -8 -4 -15 -8z"/>
<path d="M2061 2267 c-18 -23 -2 -49 28 -45 20 2 26 8 26 28 0 29 -34 40 -54
17z"/>
<path d="M2478 2264 c-12 -11 -10 -52 3 -60 6 -3 19 -20 30 -38 10 -17 19 -26
19 -20 0 6 -9 22 -19 36 -11 13 -21 39 -23 57 -2 18 -6 29 -10 25z"/>
<path d="M1045 2220 c-8 -13 4 -32 16 -25 12 8 12 35 0 35 -6 0 -13 -4 -16
-10z"/>
<path d="M2898 2223 c6 -2 18 -2 25 0 6 3 1 5 -13 5 -14 0 -19 -2 -12 -5z"/>
<path d="M1555 2187 c-11 -26 -12 -47 -6 -82 11 -57 26 -74 18 -20 -3 22 -2
60 3 85 10 57 5 64 -15 17z"/>
<path d="M2970 2206 c0 -18 83 -56 140 -65 36 -5 74 -12 85 -16 11 -3 4 2 -15
13 -19 11 -59 22 -88 25 -29 4 -69 16 -88 27 -19 12 -34 19 -34 16z"/>
<path d="M1123 2181 c0 -11 5 -17 9 -15 4 3 17 -11 29 -30 12 -20 23 -36 25
-36 8 0 -35 76 -50 89 -12 10 -15 9 -13 -8z"/>
<path d="M1623 2153 c-6 -27 -10 -49 -9 -50 7 -8 32 65 27 80 -4 12 -10 3 -18
-30z"/>
<path d="M2063 2184 c-6 -16 15 -37 29 -28 4 3 8 14 8 25 0 23 -28 26 -37 3z"/>
<path d="M2830 2179 c-11 -7 -5 -8 21 -3 33 5 99 -16 99 -32 0 -2 -9 0 -20 6
-12 6 -31 8 -43 5 -17 -5 -19 -4 -7 4 13 9 13 11 -2 11 -9 0 -19 -4 -22 -9 -3
-5 -18 -12 -33 -16 -15 -3 -46 -19 -70 -35 -23 -16 -45 -25 -47 -21 -7 10 19
33 59 54 17 9 26 16 22 17 -14 0 -50 -21 -119 -72 -47 -35 -70 -59 -78 -83 -7
-20 -20 -37 -33 -41 -32 -10 -64 -37 -60 -51 3 -9 11 -8 29 3 13 9 22 20 19
24 -3 5 5 10 17 12 14 2 29 16 39 35 9 18 22 40 29 48 14 17 35 21 25 4 -4 -6
2 -5 14 3 12 7 21 17 21 22 0 4 -8 2 -17 -5 -15 -11 -14 -10 1 9 22 25 27 27
24 10 -2 -8 5 -12 16 -10 18 3 18 2 5 -14 -12 -16 -12 -17 1 -9 28 15 50 38
45 46 -10 15 96 47 132 39 22 -5 31 -4 26 3 -4 6 0 8 9 5 8 -4 20 -3 27 2 20
12 -41 50 -81 50 -18 0 -40 -5 -48 -11z m-75 -99 c-3 -5 -11 -10 -16 -10 -6 0
-7 5 -4 10 3 6 11 10 16 10 6 0 7 -4 4 -10z"/>
<path d="M3210 2163 c14 -9 36 -26 49 -37 16 -15 22 -16 19 -6 -5 16 -64 60
-82 60 -6 0 1 -7 14 -17z"/>
<path d="M2135 2160 c-7 -12 2 -30 16 -30 12 0 12 27 0 35 -5 3 -12 1 -16 -5z"/>
<path d="M2188 2158 c10 -13 10 -17 -4 -22 -13 -5 -15 -9 -6 -18 14 -14 21 -9
24 22 2 13 -3 25 -12 28 -12 4 -13 3 -2 -10z"/>
<path d="M3869 2147 c-40 -27 -86 -91 -94 -132 -5 -28 -4 -27 17 11 13 22 30
50 39 62 18 25 72 48 77 33 2 -5 9 -8 15 -5 7 2 18 -5 25 -16 7 -12 8 -20 2
-20 -7 0 -7 -6 -2 -17 6 -10 12 -38 16 -63 3 -27 3 -37 -2 -26 -6 13 -11 16
-15 9 -4 -7 -2 -15 4 -18 5 -4 8 -14 4 -22 -4 -13 -3 -13 9 -4 7 6 17 30 21
54 6 34 8 38 15 22 6 -17 9 -13 19 23 15 53 7 97 -22 117 -31 22 -89 19 -128
-8z m116 -22 c17 -16 25 -34 24 -57 l-1 -33 -8 33 c-4 19 -13 39 -19 45 -13
13 -14 6 -2 -26 5 -13 6 -39 1 -58 -8 -33 -8 -32 -9 15 -1 50 -21 86 -48 86
-7 0 -13 5 -13 10 0 20 51 10 75 -15z"/>
<path d="M3945 2130 c3 -5 11 -10 16 -10 6 0 7 5 4 10 -3 6 -11 10 -16 10 -6
0 -7 -4 -4 -10z"/>
<path d="M1433 2120 c0 -25 2 -35 4 -22 2 12 2 32 0 45 -2 12 -4 2 -4 -23z"/>
<path d="M1489 2136 c-9 -9 8 -91 26 -125 19 -38 105 -156 142 -197 15 -16 20
-21 11 -9 -9 11 -24 36 -32 56 -8 20 -31 57 -50 82 -45 59 -78 123 -85 165 -3
19 -9 31 -12 28z"/>
<path d="M2569 2111 c-16 -16 -29 -35 -29 -43 0 -7 5 -4 11 7 6 11 23 30 38
42 14 13 22 23 18 23 -5 0 -22 -13 -38 -29z"/>
<path d="M2036 2111 c-4 -5 -2 -12 3 -15 5 -4 12 -2 15 3 4 5 2 12 -3 15 -5 4
-12 2 -15 -3z"/>
<path d="M2900 2100 c70 -26 100 -25 35 0 -27 11 -59 20 -70 20 -11 -1 5 -10
35 -20z"/>
<path d="M1110 2099 c0 -5 5 -7 10 -4 6 3 10 8 10 11 0 2 -4 4 -10 4 -5 0 -10
-5 -10 -11z"/>
<path d="M2110 2100 c0 -5 5 -10 11 -10 5 0 7 5 4 10 -3 6 -8 10 -11 10 -2 0
-4 -4 -4 -10z"/>
<path d="M3135 2100 c4 -6 -8 -11 -27 -11 -24 -1 -27 -3 -10 -6 12 -2 20 -9
16 -14 -3 -6 2 -9 12 -7 15 2 26 -12 50 -61 22 -47 49 -81 99 -125 63 -57 68
-65 68 -103 0 -22 -7 -55 -16 -72 -8 -17 -14 -31 -11 -31 11 0 37 55 44 97 l9
48 -3 -50 c-2 -27 -6 -59 -10 -70 -3 -11 0 -6 8 10 8 17 16 23 16 15 2 -20 29
40 30 66 1 43 -51 124 -106 165 -36 26 -62 56 -79 89 -14 27 -34 54 -44 60
-25 13 -54 13 -46 0z m75 -74 c22 -46 43 -72 85 -104 71 -54 95 -94 94 -152
l-2 -45 -6 52 c-6 45 -21 86 -21 56 0 -6 -17 6 -38 26 -20 20 -51 46 -67 59
-25 19 -26 21 -5 11 25 -12 25 -12 6 9 -10 12 -23 19 -27 16 -7 -4 -58 90 -63
116 -1 3 -5 11 -9 17 -6 9 -3 11 8 7 9 -4 29 -34 45 -68z"/>
<path d="M3275 1910 c3 -5 11 -10 16 -10 6 0 7 5 4 10 -3 6 -11 10 -16 10 -6
0 -7 -4 -4 -10z"/>
<path d="M1464 2052 c3 -49 7 -58 51 -100 l48 -47 -30 40 c-39 51 -51 75 -63
122 -9 37 -9 36 -6 -15z"/>
<path d="M1526 2080 c3 -14 10 -29 15 -34 14 -16 10 6 -7 34 l-15 25 7 -25z"/>
<path d="M2603 2085 c-21 -14 -58 -93 -49 -102 3 -3 13 13 22 36 9 23 28 50
42 61 29 23 17 27 -15 5z"/>
<path d="M2794 2085 c-18 -14 -17 -15 11 -8 17 4 45 8 63 7 20 0 28 3 20 8
-21 13 -73 9 -94 -7z"/>
<path d="M3628 2084 c-38 -20 -35 -28 3 -9 17 9 37 14 45 11 9 -3 12 -1 9 4
-8 14 -25 12 -57 -6z"/>
<path d="M2458 2079 c-9 -5 -30 -33 -47 -62 -17 -28 -23 -41 -14 -28 10 13 33
40 51 59 34 37 38 47 10 31z"/>
<path d="M3890 2080 c0 -5 5 -10 11 -10 5 0 7 5 4 10 -3 6 -8 10 -11 10 -2 0
-4 -4 -4 -10z"/>
<path d="M1160 2060 c0 -5 5 -10 10 -10 6 0 10 5 10 10 0 6 -4 10 -10 10 -5 0
-10 -4 -10 -10z"/>
<path d="M2145 2060 c-3 -5 -1 -10 4 -10 6 0 11 5 11 10 0 6 -2 10 -4 10 -3 0
-8 -4 -11 -10z"/>
<path d="M2195 2060 c-3 -5 -2 -10 4 -10 5 0 13 5 16 10 3 6 2 10 -4 10 -5 0
-13 -4 -16 -10z"/>
<path d="M2815 2060 c-4 -6 8 -10 28 -10 19 0 54 -9 78 -20 47 -21 114 -26
139 -10 11 7 2 10 -31 10 -25 0 -72 9 -104 20 -64 22 -101 25 -110 10z"/>
<path d="M1431 2040 c-1 -36 32 -100 69 -135 44 -41 90 -109 90 -134 0 -24 18
-28 26 -6 11 28 -17 72 -91 144 -59 57 -76 79 -83 113 -7 28 -10 34 -11 18z"/>
<path d="M2460 2021 l-35 -34 34 19 c29 17 50 41 40 47 -2 1 -20 -13 -39 -32z"/>
<path d="M3010 2049 c114 -21 112 -19 137 -84 18 -46 37 -74 88 -121 60 -57
65 -65 66 -105 l0 -44 15 45 c8 25 12 55 9 67 -6 27 -70 77 -85 68 -23 -14
-82 63 -78 102 0 10 0 27 -1 38 -1 17 -3 18 -12 5 -8 -12 -9 -10 -7 10 l3 25
-95 2 c-90 1 -92 1 -40 -8z m279 -214 c17 -20 31 -41 31 -48 0 -7 -5 -3 -11 8
-6 11 -25 32 -42 48 -17 15 -26 27 -20 27 6 0 25 -16 42 -35z"/>
<path d="M2338 2010 c-25 -26 -49 -41 -75 -46 -97 -17 -173 -98 -173 -183 0
-53 36 -137 71 -166 l24 -20 -22 25 c-33 38 -53 93 -53 148 0 82 63 155 154
176 41 10 83 42 101 77 19 36 18 36 -27 -11z"/>
<path d="M2494 2005 c-22 -22 -56 -49 -74 -60 -19 -11 -48 -44 -65 -74 -22
-37 -44 -60 -71 -74 -21 -11 -47 -26 -56 -35 -24 -21 -23 -65 3 -88 11 -10 18
-26 16 -36 -3 -10 -1 -16 4 -12 15 9 10 29 -12 58 -33 42 -22 67 45 100 45 23
66 41 88 77 16 26 53 63 81 82 44 30 98 94 85 100 -1 1 -21 -16 -44 -38z"/>
<path d="M3480 2020 c0 -15 5 -20 18 -18 9 2 17 10 17 18 0 8 -8 16 -17 18
-13 2 -18 -3 -18 -18z"/>
<path d="M1175 2020 c-4 -6 -3 -16 3 -22 6 -6 12 -6 17 2 4 6 3 16 -3 22 -6 6
-12 6 -17 -2z"/>
<path d="M1401 2012 c-1 -12 6 -39 14 -59 19 -44 19 -43 -5 -43 -12 0 -24 10
-30 23 l-9 22 0 -23 c-1 -28 43 -52 61 -34 10 10 9 20 -1 45 -7 17 -17 46 -21
62 -7 25 -8 26 -9 7z"/>
<path d="M1601 2014 c0 -11 3 -14 6 -6 3 7 2 16 -1 19 -3 4 -6 -2 -5 -13z"/>
<path d="M3454 2005 c8 -16 31 -46 52 -65 l38 -35 -35 44 c-19 24 -42 53 -52
65 -18 21 -18 20 -3 -9z"/>
<path d="M3930 2019 c0 -5 5 -7 10 -4 6 3 10 8 10 11 0 2 -4 4 -10 4 -5 0 -10
-5 -10 -11z"/>
<path d="M2760 2010 c0 -5 5 -10 11 -10 5 0 7 5 4 10 -3 6 -8 10 -11 10 -2 0
-4 -4 -4 -10z"/>
<path d="M2705 2000 c3 -5 8 -10 11 -10 2 0 4 5 4 10 0 6 -5 10 -11 10 -5 0
-7 -4 -4 -10z"/>
<path d="M2855 1990 c-10 -11 -15 -20 -11 -20 4 0 19 9 33 20 17 13 20 20 11
20 -8 0 -23 -9 -33 -20z"/>
<path d="M1362 1980 c0 -14 2 -19 5 -12 2 6 2 18 0 25 -3 6 -5 1 -5 -13z"/>
<path d="M3058 1989 c33 -10 36 -15 32 -59 l-1 -25 16 23 c9 12 15 32 13 45
-3 19 -10 22 -48 24 -44 2 -44 2 -12 -8z"/>
<path d="M1185 1980 c-16 -7 -17 -9 -3 -9 9 -1 20 4 23 9 7 11 7 11 -20 0z"/>
<path d="M1647 1973 c3 -10 14 -27 23 -38 9 -11 27 -37 39 -57 12 -21 37 -47
54 -59 l32 -22 -37 39 c-20 21 -43 55 -52 74 -23 53 -75 108 -59 63z"/>
<path d="M3744 1975 c-4 -8 -3 -27 0 -41 5 -18 3 -24 -5 -18 -7 4 -10 2 -7 -7
3 -8 9 -14 14 -14 5 0 14 -4 21 -8 7 -4 6 4 -4 23 -8 18 -12 41 -9 55 7 27 -1
34 -10 10z"/>
<path d="M881 1967 c-1 -10 7 -34 18 -55 10 -20 16 -43 14 -49 -5 -15 25 -56
64 -86 15 -12 22 -14 16 -6 -7 9 -10 19 -6 23 4 3 -5 19 -19 34 -31 34 -67 94
-78 130 -5 16 -9 20 -9 9z m73 -142 l27 -40 -30 35 c-17 19 -31 39 -31 44 0 5
1 7 3 5 2 -2 15 -22 31 -44z"/>
<path d="M2160 1958 c-42 -29 -98 -106 -99 -136 -1 -20 -3 -21 -21 -10 -18 11
-24 9 -51 -20 -16 -17 -39 -32 -49 -32 -10 0 -22 -4 -25 -10 -4 -6 6 -10 23
-10 18 0 38 10 57 30 33 34 46 34 56 -1 7 -23 7 -23 8 -2 1 12 6 25 11 28 6 3
10 14 10 24 0 44 53 115 103 140 23 12 35 21 26 21 -9 0 -31 -10 -49 -22z"/>
<path d="M3040 1967 c13 -7 27 -23 31 -37 l7 -25 1 26 c1 30 -16 49 -43 49
-19 0 -19 -1 4 -13z"/>
<path d="M3535 1970 c3 -5 10 -10 16 -10 5 0 9 5 9 10 0 6 -7 10 -16 10 -8 0
-12 -4 -9 -10z"/>
<path d="M741 1944 c0 -11 3 -14 6 -6 3 7 2 16 -1 19 -3 4 -6 -2 -5 -13z"/>
<path d="M2972 1937 c-10 -11 -9 -17 3 -27 24 -20 45 4 24 26 -14 13 -17 13
-27 1z"/>
<path d="M1654 1905 c32 -47 68 -89 86 -100 8 -5 -2 11 -22 35 -21 24 -38 49
-38 56 0 6 -11 19 -25 28 l-24 16 23 -35z"/>
<path d="M2886 1931 c-3 -5 0 -14 8 -20 10 -8 16 -8 25 2 6 8 8 17 4 20 -9 10
-31 9 -37 -2z"/>
<path d="M3127 1933 c-14 -23 9 -55 64 -89 32 -19 68 -47 79 -61 11 -14 20
-20 20 -14 0 7 -10 21 -22 31 -83 69 -103 88 -119 113 -9 16 -19 25 -22 20z"/>
<path d="M3426 1909 c69 -75 87 -151 57 -241 -11 -31 -16 -55 -12 -52 13 8 39
104 39 143 0 52 -42 134 -81 161 l-34 23 31 -34z"/>
<path d="M3770 1921 c0 -17 52 -51 79 -51 15 0 36 7 47 15 18 14 17 14 -11 5
-36 -13 -69 -6 -95 20 -11 11 -20 16 -20 11z"/>
<path d="M2233 1899 c-82 -24 -115 -152 -58 -224 15 -18 15 -17 0 12 -38 80
-3 159 82 182 58 15 81 42 35 40 -15 0 -41 -5 -59 -10z"/>
<path d="M2560 1894 c0 -8 5 -12 10 -9 6 3 10 10 10 16 0 5 -4 9 -10 9 -5 0
-10 -7 -10 -16z"/>
<path d="M3050 1904 c0 -6 7 -19 16 -30 14 -18 14 -18 3 6 -14 31 -19 36 -19
24z"/>
<path d="M840 1896 c0 -14 43 -92 70 -126 29 -36 116 -93 160 -104 14 -4 3 5
-25 19 -68 34 -97 62 -156 147 -27 39 -49 68 -49 64z"/>
<path d="M2808 1889 c-33 -19 -15 -69 24 -69 15 0 38 27 38 44 0 7 -31 36 -38
36 -4 0 -15 -5 -24 -11z"/>
<path d="M3680 1895 c0 -3 25 -32 55 -65 30 -33 55 -55 55 -49 0 5 -25 34 -55
64 -30 30 -55 53 -55 50z"/>
<path d="M1324 1865 c1 -18 8 -20 61 -20 33 0 70 -4 81 -8 31 -11 47 -58 40
-114 l-5 -48 13 35 c23 56 19 95 -11 130 -25 30 -30 32 -72 27 -25 -4 -58 -9
-73 -13 -21 -5 -27 -2 -31 12 -3 16 -4 16 -3 -1z"/>
<path d="M1927 1860 c-21 -22 -24 -30 -13 -30 8 0 22 14 31 30 9 17 14 30 13
30 -2 0 -16 -13 -31 -30z"/>
<path d="M1650 1868 c0 -10 14 -32 31 -50 l31 -33 -20 30 c-10 17 -24 39 -30
50 -10 17 -11 18 -12 3z"/>
<path d="M4114 1848 c-43 -38 -94 -140 -118 -239 -26 -105 -17 -102 18 6 33
103 76 193 105 219 28 25 73 7 88 -35 l13 -34 -3 35 c-1 25 -9 38 -27 48 l-25
13 25 -3 c18 -2 28 -12 37 -38 11 -33 12 -34 12 -7 1 33 -31 67 -64 67 -13 0
-41 -15 -61 -32z"/>
<path d="M1990 1862 c0 -4 9 -8 20 -9 11 -1 18 2 15 8 -7 11 -35 12 -35 1z"/>
<path d="M3120 1867 c0 -3 29 -28 64 -55 35 -28 66 -59 69 -71 3 -11 -3 -37
-14 -58 -10 -20 -17 -38 -15 -40 5 -6 46 62 47 78 0 8 4 5 9 -6 5 -11 9 -15 9
-8 2 28 -34 82 -68 102 -20 11 -51 30 -68 42 -18 11 -33 19 -33 16z"/>
<path d="M2985 1850 c-7 -12 2 -30 16 -30 12 0 12 27 0 35 -5 3 -12 1 -16 -5z"/>
<path d="M2221 1836 c-29 -16 -50 -52 -50 -86 0 -20 3 -17 14 15 8 22 27 50
42 62 31 26 29 29 -6 9z"/>
<path d="M3457 1825 c5 -16 8 -58 8 -92 0 -33 3 -56 7 -50 13 21 8 121 -7 147
l-15 25 7 -30z"/>
<path d="M3123 1833 c4 -3 1 -13 -6 -22 -11 -14 -10 -14 5 -2 16 12 16 31 1
31 -4 0 -3 -3 0 -7z"/>
<path d="M1539 1818 c13 -18 12 -74 -3 -113 -5 -11 1 -6 13 10 27 39 27 77 -1
101 -18 15 -20 15 -9 2z"/>
<path d="M4157 1824 c-11 -11 -8 -26 3 -19 15 9 25 -24 11 -38 -8 -8 -11 -7
-11 6 0 9 -4 17 -10 17 -15 0 -12 -16 5 -30 8 -7 15 -19 15 -27 0 -13 -2 -13
-17 -2 -9 8 -14 9 -10 2 4 -6 0 -18 -8 -27 -14 -13 -13 -15 4 -13 11 0 17 6
13 12 -3 5 1 4 10 -3 22 -17 25 -8 24 62 -1 54 -12 77 -29 60z"/>
<path d="M836 1808 c46 -80 162 -184 182 -163 4 4 1 10 -6 12 -32 12 -131 95
-151 127 -21 33 -42 53 -25 24z"/>
<path d="M1453 1805 c9 -8 13 -24 10 -35 -4 -14 0 -20 11 -20 9 0 16 7 16 16
0 25 -19 54 -36 54 -14 0 -14 -2 -1 -15z"/>
<path d="M1364 1795 c-3 -8 -4 -20 -1 -27 4 -8 6 -6 6 5 1 27 20 20 42 -17 21
-36 44 -51 54 -36 4 6 2 10 -4 10 -6 0 -18 15 -27 33 -25 47 -58 63 -70 32z"/>
<path d="M3132 1783 c2 -10 10 -18 18 -18 8 0 16 8 18 18 2 12 -3 17 -18 17
-15 0 -20 -5 -18 -17z"/>
<path d="M1636 1774 c-8 -22 -8 -26 4 -19 6 3 25 -4 42 -17 l33 -23 -29 38
c-31 41 -41 45 -50 21z"/>
<path d="M2875 1781 c-7 -12 12 -24 25 -16 11 7 4 25 -10 25 -5 0 -11 -4 -15
-9z"/>
<path d="M2278 1763 c-41 -17 -48 -33 -20 -54 15 -13 16 -12 4 3 -17 22 -10
33 28 46 26 9 30 8 30 -6 0 -14 2 -15 9 -2 10 14 6 30 -7 29 -4 0 -24 -7 -44
-16z"/>
<path d="M2356 1749 c-51 -61 -17 -167 77 -239 33 -25 76 -72 108 -118 28 -42
64 -90 78 -105 84 -92 239 -99 401 -17 62 31 121 76 117 90 -1 5 7 15 18 23
11 9 17 18 14 21 -8 8 -105 -72 -102 -83 6 -25 -183 -81 -272 -81 -104 1 -151
33 -254 179 -24 34 -66 77 -93 96 -53 38 -83 80 -98 137 -11 38 -4 63 26 106
24 33 10 27 -20 -9z m755 -409 c-13 -11 -28 -20 -33 -20 -6 0 0 9 13 20 13 10
29 19 34 19 6 0 -1 -9 -14 -19z"/>
<path d="M3207 1752 c15 -15 30 -23 31 -19 6 12 -16 34 -39 40 -16 4 -15 1 8
-21z"/>
<path d="M4311 1764 c0 -11 3 -14 6 -6 3 7 2 16 -1 19 -3 4 -6 -2 -5 -13z"/>
<path d="M1826 1755 c-26 -19 -6 -19 30 0 23 12 25 15 9 15 -11 -1 -29 -7 -39
-15z"/>
<path d="M1720 1749 c0 -12 52 -34 100 -42 31 -5 32 -5 10 5 -14 5 -44 18 -67
29 -24 10 -43 14 -43 8z"/>
<path d="M2005 1749 c-4 -5 -19 -15 -33 -20 -26 -10 -26 -11 -8 -25 11 -8 27
-14 35 -14 9 1 3 6 -13 13 l-28 12 36 13 c20 7 36 18 36 23 0 12 -17 11 -25
-2z"/>
<path d="M767 1713 c-3 -18 -1 -21 13 -13 17 9 30 4 30 -11 0 -5 -7 -6 -15 -3
-22 9 -18 -3 11 -34 22 -23 24 -23 15 -5 -14 28 -14 34 2 31 6 -2 26 -41 44
-88 32 -85 44 -141 18 -85 -19 42 -18 18 1 -39 12 -34 19 -44 25 -35 5 8 9 9
9 3 0 -5 7 -19 15 -30 15 -17 15 -16 2 11 -8 17 -22 57 -30 91 -9 33 -31 98
-49 145 -30 76 -36 84 -60 84 -20 1 -28 -5 -31 -22z m62 -23 c0 -10 -3 -8 -9
5 -12 27 -12 43 0 25 5 -8 9 -22 9 -30z"/>
<path d="M3187 1734 c-13 -13 -7 -24 14 -24 11 0 19 5 17 12 -5 14 -22 21 -31
12z"/>
<path d="M4279 1674 c-15 -35 -25 -64 -22 -64 7 0 54 112 51 121 -2 4 -15 -21
-29 -57z"/>
<path d="M1269 1719 c83 -16 111 -48 135 -152 18 -78 27 -97 69 -149 43 -54
54 -47 13 6 -32 42 -46 78 -75 182 -21 78 -80 125 -153 123 -30 -1 -29 -2 11
-10z"/>
<path d="M1621 1716 c-11 -13 -34 -126 -27 -133 2 -2 9 18 16 44 19 70 37 95
62 87 14 -4 18 -2 14 5 -10 16 -51 14 -65 -3z"/>
<path d="M4192 1693 c-10 -34 -10 -36 3 -19 13 17 21 56 12 56 -2 0 -9 -17
-15 -37z"/>
<path d="M860 1706 c0 -8 11 -34 25 -57 14 -24 25 -39 25 -34 0 6 -9 25 -20
43 -25 40 -25 49 -2 31 14 -11 13 -10 -2 9 -22 26 -26 27 -26 8z"/>
<path d="M1107 1710 c7 -7 45 -22 85 -32 86 -22 114 -45 134 -114 13 -45 13
-46 8 -9 -12 85 -54 125 -152 146 -31 6 -63 14 -72 17 -12 4 -13 2 -3 -8z"/>
<path d="M1468 1704 c-5 -4 -8 -19 -8 -33 0 -18 3 -22 11 -14 6 6 9 21 7 33
-1 12 -6 18 -10 14z"/>
<path d="M1551 1661 c-26 -62 -27 -141 -2 -197 10 -23 23 -44 29 -48 5 -3 1
11 -9 31 -23 45 -25 135 -5 184 23 56 28 79 18 79 -5 0 -19 -22 -31 -49z"/>
<path d="M3981 1650 c-22 -59 -44 -170 -36 -178 2 -2 7 13 10 34 4 22 17 75
30 119 13 43 23 81 21 82 -2 2 -13 -24 -25 -57z"/>
<path d="M1323 1664 c16 -18 30 -47 33 -70 9 -68 14 -84 25 -84 14 0 4 71 -15
109 -8 14 -27 37 -43 51 l-28 25 28 -31z"/>
<path d="M932 1654 c25 -27 27 -35 23 -84 l-4 -55 9 45 c13 57 7 80 -28 104
l-27 19 27 -29z"/>
<path d="M1645 1644 c-8 -20 -15 -46 -15 -58 1 -12 9 1 19 29 12 34 23 50 34
49 10 -1 17 2 17 7 0 5 -9 9 -20 9 -13 0 -25 -12 -35 -36z"/>
<path d="M1756 1669 c-48 -11 -71 -31 -73 -61 -2 -23 -2 -23 13 -3 9 11 19 27
24 35 6 10 26 15 69 15 79 0 117 -26 115 -79 -1 -19 3 -33 7 -30 12 7 11 61
-1 84 -6 11 -33 26 -62 35 -28 8 -52 15 -52 14 -1 -1 -19 -5 -40 -10z"/>
<path d="M1900 1671 c0 -5 7 -12 16 -15 14 -5 15 -4 4 9 -14 17 -20 19 -20 6z"/>
<path d="M4122 1596 c-23 -36 -39 -66 -37 -66 10 0 86 112 83 122 -2 6 -23
-19 -46 -56z"/>
<path d="M1232 1634 c34 -18 58 -62 58 -107 0 -32 24 -67 45 -67 5 0 1 6 -9
13 -11 8 -22 34 -27 68 -6 41 -15 60 -39 82 -17 15 -36 27 -43 27 -6 -1 0 -7
15 -16z"/>
<path d="M1436 1637 c3 -10 9 -15 12 -12 3 3 0 11 -7 18 -10 9 -11 8 -5 -6z"/>
<path d="M1740 1625 c-8 -9 -9 -15 -2 -15 6 0 14 5 17 10 3 6 11 10 16 10 6 0
8 -4 5 -9 -3 -5 8 -14 26 -20 43 -15 58 -13 28 4 -30 17 -11 20 25 3 27 -12
35 -31 9 -21 -14 5 -14 3 -3 -16 20 -30 29 -26 29 14 0 42 -20 55 -88 55 -32
0 -54 -5 -62 -15z"/>
<path d="M1008 1613 c-22 -25 -28 -62 -18 -103 l8 -35 1 43 c1 24 8 57 17 73
18 36 14 47 -8 22z"/>
<path d="M2058 1595 c38 -45 78 -81 107 -97 26 -13 -70 87 -110 115 l-30 21
33 -39z"/>
<path d="M2300 1617 c0 -35 35 -79 107 -133 40 -30 87 -75 104 -99 38 -53 48
-58 22 -13 -21 37 -78 96 -152 157 -29 24 -59 58 -67 75 -9 20 -13 25 -14 13z"/>
<path d="M2000 1618 c0 -4 10 -23 23 -41 12 -19 29 -48 38 -64 20 -36 127 -93
174 -93 53 0 132 -29 182 -67 26 -20 41 -28 33 -18 -27 33 -103 75 -175 96
-107 32 -157 62 -218 131 -31 35 -57 60 -57 56z"/>
<path d="M2145 1552 c68 -65 150 -116 168 -105 4 3 -25 25 -65 50 -40 25 -92
63 -115 84 -72 66 -62 42 12 -29z"/>
<path d="M3931 1566 c-6 -25 -11 -55 -10 -68 1 -13 7 6 15 41 16 73 12 95 -5
27z"/>
<path d="M4125 1558 c-21 -29 -55 -70 -74 -92 -25 -27 -30 -35 -14 -27 28 14
90 86 114 134 11 20 18 37 16 37 -1 0 -20 -24 -42 -52z"/>
<path d="M1947 1593 c-4 -3 -7 -18 -7 -33 0 -14 -3 -30 -7 -36 -5 -5 0 -1 10
9 9 11 17 25 17 33 0 19 10 18 27 -3 12 -16 12 -14 2 10 -12 26 -28 34 -42 20z"/>
<path d="M2245 1590 c-3 -5 1 -10 9 -10 9 0 16 -4 16 -9 0 -19 54 -73 110
-111 32 -22 72 -54 90 -72 19 -18 28 -24 23 -13 -15 26 -57 65 -114 103 -52
35 -99 86 -99 108 0 16 -26 19 -35 4z"/>
<path d="M4225 1574 c-9 -15 -12 -23 -6 -20 11 7 35 46 28 46 -3 0 -12 -12
-22 -26z"/>
<path d="M1045 1547 c-4 -19 -1 -47 7 -66 13 -32 13 -31 13 33 0 71 -10 87
-20 33z"/>
<path d="M1465 1555 c13 -61 56 -137 106 -186 28 -27 54 -47 58 -44 3 4 -10
21 -30 38 -50 44 -85 94 -115 163 -14 32 -22 46 -19 29z"/>
<path d="M1780 1570 c0 -5 5 -10 11 -10 5 0 7 5 4 10 -3 6 -8 10 -11 10 -2 0
-4 -4 -4 -10z"/>
<path d="M1836 1566 c21 -15 30 -14 19 3 -3 6 -14 11 -23 11 -13 0 -13 -2 4
-14z"/>
<path d="M1160 1560 c0 -5 5 -10 11 -10 5 0 7 5 4 10 -3 6 -8 10 -11 10 -2 0
-4 -4 -4 -10z"/>
<path d="M3157 1552 c-10 -10 -14 -22 -11 -25 4 -4 -1 -9 -10 -13 -15 -6 -15
-7 -1 -18 14 -10 12 -15 -15 -41 -32 -30 -43 -60 -12 -32 27 25 36 7 10 -20
-21 -23 -45 -32 -33 -13 3 6 2 10 -4 10 -15 0 -24 -20 -9 -20 8 -1 6 -6 -6
-15 -11 -8 -17 -18 -13 -21 8 -8 62 37 107 89 40 47 51 81 15 47 -14 -13 -22
-26 -20 -30 2 -4 -3 -7 -11 -7 -11 0 -9 6 8 24 14 15 17 23 8 23 -9 0 -7 6 6
21 10 11 14 20 9 19 -24 -5 -27 1 -10 20 10 11 16 20 13 20 -3 0 -12 -8 -21
-18z"/>
<path d="M1810 1550 c0 -5 5 -10 10 -10 6 0 10 5 10 10 0 6 -4 10 -10 10 -5 0
-10 -4 -10 -10z"/>
<path d="M2231 1543 c16 -26 25 -29 35 -10 4 6 3 9 -1 4 -5 -4 -17 1 -28 10
-19 18 -19 17 -6 -4z"/>
<path d="M1235 1541 c6 -10 2 -12 -16 -7 -21 6 -22 6 -5 -5 13 -8 15 -13 6
-19 -9 -5 -9 -9 -1 -14 6 -4 11 -1 11 6 1 7 8 2 16 -12 11 -17 13 -19 9 -5 -4
11 -9 27 -12 35 -3 9 1 8 11 -4 34 -42 11 -97 -40 -98 -41 -1 -53 7 -74 54
l-17 40 -12 -32 c-13 -38 0 -70 26 -66 10 2 31 -3 48 -10 31 -13 73 -4 87 19
17 26 8 76 -18 104 -14 15 -22 22 -19 14z m-102 -108 c-3 -7 -6 -13 -8 -13 -2
0 -5 6 -8 13 -3 8 1 14 8 14 7 0 11 -6 8 -14z"/>
<path d="M1511 1514 c0 -11 3 -14 6 -6 3 7 2 16 -1 19 -3 4 -6 -2 -5 -13z"/>
<path d="M1660 1499 c0 -53 73 -111 137 -108 24 2 25 2 6 6 -13 2 -23 8 -23
13 0 5 -6 7 -14 4 -18 -7 -76 43 -92 81 -13 30 -13 30 -14 4z"/>
<path d="M1956 1512 c-15 -14 -3 -21 34 -19 21 1 38 3 36 4 -8 8 -65 21 -70
15z"/>
<path d="M1340 1490 c0 -6 16 -20 35 -31 19 -12 35 -25 35 -30 0 -5 5 -9 10
-9 21 0 9 21 -22 40 -18 10 -39 24 -45 30 -9 7 -13 8 -13 0z"/>
<path d="M3113 1480 c-13 -5 -23 -14 -23 -20 0 -12 35 3 45 20 7 12 7 12 -22
0z"/>
<path d="M4099 1413 c-29 -43 -76 -109 -106 -146 -30 -38 -53 -71 -50 -73 8
-8 143 171 196 259 40 66 13 39 -40 -40z"/>
<path d="M1640 1475 c0 -24 54 -84 75 -84 6 0 2 4 -7 10 -10 5 -29 27 -43 47
-14 20 -25 32 -25 27z"/>
<path d="M3573 1458 c-31 -34 -44 -64 -36 -84 4 -12 3 -15 -5 -10 -8 4 -10 2
-6 -8 6 -16 34 -30 42 -21 3 3 1 5 -4 5 -16 0 -16 61 1 86 11 17 22 22 45 19
25 -3 31 -1 28 13 -5 26 -41 26 -65 0z m57 8 c0 -2 -9 -6 -20 -9 -11 -3 -18
-1 -14 4 5 9 34 13 34 5z"/>
<path d="M1610 1464 c0 -13 42 -75 48 -70 3 3 -2 14 -11 24 -10 10 -17 24 -17
30 0 6 -4 14 -10 17 -5 3 -10 3 -10 -1z"/>
<path d="M1915 1460 c-3 -5 7 -12 22 -15 61 -13 108 -28 132 -42 l26 -15 -25
21 c-23 19 -119 61 -140 61 -5 0 -12 -4 -15 -10z"/>
<path d="M1080 1416 c0 -2 8 -10 18 -17 15 -13 16 -12 3 4 -13 16 -21 21 -21
13z"/>
<path d="M1879 1393 l-24 -27 27 17 c15 9 39 17 53 17 15 0 24 4 20 10 -12 19
-52 10 -76 -17z"/>
<path d="M2149 1377 c58 -61 154 -110 267 -136 133 -31 134 -25 4 18 -131 43
-222 87 -277 133 -36 30 -35 29 6 -15z"/>
<path d="M1840 1400 c-9 -6 -10 -10 -3 -10 6 0 15 5 18 10 8 12 4 12 -15 0z"/>
<path d="M1601 1384 c15 -18 63 -44 81 -44 7 1 -4 10 -24 20 -20 11 -40 24
-43 30 -3 5 -11 10 -17 10 -6 0 -5 -6 3 -16z"/>
<path d="M1325 1364 l-70 -13 95 2 c52 1 105 -2 118 -6 32 -12 29 11 -4 23
-30 12 -48 11 -139 -6z"/>
<path d="M2205 1369 c10 -16 100 -58 146 -68 64 -15 59 -5 -8 14 -32 9 -77 27
-101 40 -23 13 -40 20 -37 14z"/>
<path d="M2149 1304 c87 -80 126 -107 148 -102 14 3 8 9 -23 26 -23 11 -65 42
-95 67 -81 70 -103 76 -30 9z"/>
<path d="M970 1345 c0 -26 41 -75 62 -75 20 1 21 2 6 10 -9 6 -28 25 -42 43
-14 17 -26 28 -26 22z"/>
<path d="M1750 1340 c8 -5 20 -10 25 -10 6 0 3 5 -5 10 -8 5 -19 10 -25 10 -5
0 -3 -5 5 -10z"/>
<path d="M1979 1339 c70 -14 106 -49 153 -150 24 -49 47 -89 52 -89 4 0 3 6
-3 14 -6 7 -18 36 -26 63 -30 100 -111 174 -190 172 -24 -1 -22 -3 14 -10z"/>
<path d="M2352 1339 c2 -6 8 -10 13 -10 5 0 11 4 13 10 2 6 -4 11 -13 11 -9 0
-15 -5 -13 -11z"/>
<path d="M968 1292 c22 -26 45 -63 51 -82 6 -21 35 -59 68 -90 l56 -55 -56 66
c-30 37 -58 77 -62 90 -10 32 -64 106 -82 113 -8 3 4 -16 25 -42z"/>
<path d="M1140 1316 c0 -7 15 -23 33 -36 l32 -23 -22 25 c-13 13 -23 27 -23
30 0 3 22 3 49 0 27 -2 56 0 64 4 10 6 -11 10 -59 11 -53 1 -74 -2 -74 -11z"/>
<path d="M1458 1320 c54 -13 63 -30 16 -30 -22 0 -49 -7 -60 -15 -18 -14 -17
-14 9 -5 16 5 48 10 72 10 24 0 47 5 50 10 8 13 -56 40 -92 39 -27 -1 -26 -1
5 -9z"/>
<path d="M1595 1295 c17 -14 64 -42 105 -62 41 -19 112 -53 156 -74 76 -36
110 -64 157 -129 26 -37 8 -2 -24 46 -31 46 -116 104 -219 148 -36 16 -96 44
-135 63 -64 31 -68 32 -40 8z"/>
<path d="M1930 1311 c-24 -7 -24 -7 9 -14 49 -10 127 -63 152 -103 23 -38 36
-46 18 -11 -35 65 -71 106 -109 121 -22 9 -41 16 -43 15 -1 -1 -13 -4 -27 -8z"/>
<path d="M1690 1286 c8 -8 53 -26 100 -41 97 -30 137 -52 177 -98 15 -18 24
-26 19 -17 -41 65 -102 106 -220 146 -80 28 -96 30 -76 10z"/>
<path d="M2164 1235 c40 -70 69 -92 112 -80 l29 8 -39 7 c-38 7 -65 30 -119
102 -9 12 -2 -4 17 -37z"/>
<path d="M1346 1258 c-22 -30 -20 -71 3 -99 l19 -24 -11 43 c-8 31 -8 50 0 72
13 36 10 38 -11 8z"/>
<path d="M2533 1265 c0 -8 4 -12 9 -9 4 3 8 9 8 15 0 5 -4 9 -8 9 -5 0 -9 -7
-9 -15z"/>
<path d="M1094 1263 c4 -8 2 -13 -4 -13 -6 0 -8 -4 -5 -10 3 -5 -1 -10 -9 -10
-9 0 -16 -3 -16 -8 0 -4 13 -7 29 -7 21 -1 27 3 23 14 -3 9 -1 12 6 7 7 -4 12
-14 12 -22 0 -8 19 -33 43 -56 23 -23 36 -38 28 -34 -14 9 10 -34 38 -67 19
-22 57 -45 47 -28 -12 18 6 12 33 -11 14 -13 22 -17 16 -10 -44 54 -255 277
-241 255z m160 -186 c14 -20 21 -37 17 -37 -10 0 -51 61 -51 75 0 11 4 6 34
-38z"/>
<path d="M1454 1248 c-24 -11 -44 -48 -44 -79 0 -30 17 -58 64 -108 24 -26 32
-39 20 -33 -12 6 -24 9 -28 7 -3 -3 -4 -2 -1 1 4 7 -45 77 -51 71 -6 -6 38
-87 47 -87 5 0 10 1 12 2 1 2 18 -7 38 -20 20 -12 38 -19 42 -16 3 3 19 -2 36
-11 44 -22 39 -13 -10 20 -104 68 -160 145 -144 195 8 25 57 59 62 44 3 -8 21
-8 60 -2 58 9 88 5 79 -11 -3 -5 6 -11 19 -14 25 -4 25 -3 9 14 -32 35 -160
52 -210 27z m114 -5 c-10 -2 -26 -2 -35 0 -10 3 -2 5 17 5 19 0 27 -2 18 -5z
m-27 -240 c13 -15 12 -15 -8 -4 -24 12 -29 21 -14 21 5 0 15 -7 22 -17z"/>
<path d="M3040 1238 c-48 -29 -131 -57 -199 -67 -51 -8 -52 -9 -16 -10 60 -2
153 26 207 61 27 16 48 32 48 34 0 6 -3 5 -40 -18z"/>
<path d="M3295 1234 c-9 -15 -12 -23 -6 -20 11 7 35 46 28 46 -3 0 -12 -12
-22 -26z"/>
<path d="M1998 1215 c16 -13 55 -56 86 -94 32 -39 66 -73 77 -76 11 -4 43 5
77 20 31 15 80 31 107 36 49 8 49 8 -15 5 -41 -2 -81 -11 -106 -24 -49 -25
-50 -24 -162 86 -40 40 -77 72 -83 72 -6 0 3 -11 19 -25z"/>
<path d="M1216 1185 c23 -22 49 -54 58 -71 8 -17 28 -39 43 -49 l28 -18 -27
29 c-14 16 -33 46 -42 66 -9 24 -26 43 -43 50 -15 6 -35 17 -44 22 -8 6 4 -7
27 -29z"/>
<path d="M3200 1220 c0 -5 5 -10 11 -10 5 0 7 5 4 10 -3 6 -8 10 -11 10 -2 0
-4 -4 -4 -10z"/>
<path d="M1533 1213 c-13 -2 -23 -8 -23 -12 0 -5 11 -6 25 -3 14 2 42 1 62 -3
36 -8 37 -8 13 -15 -16 -5 -19 -8 -7 -9 9 -1 26 -10 38 -22 20 -20 21 -21 1
-15 -11 4 -23 3 -26 -2 -5 -9 10 -14 80 -25 12 -2 44 -18 70 -36 l49 -31 -40
36 c-22 20 -57 44 -77 54 -21 9 -35 20 -31 24 4 4 -1 4 -11 0 -14 -5 -17 -4
-12 4 11 18 23 15 87 -23 l59 -35 -22 31 c-12 16 -34 32 -48 35 -14 3 -54 16
-90 30 -36 13 -68 23 -70 23 -3 -1 -15 -4 -27 -6z"/>
<path d="M1473 1195 c-9 -24 1 -27 15 -5 8 13 8 20 2 20 -6 0 -13 -7 -17 -15z"/>
<path d="M3500 1190 c0 -23 -30 -41 -85 -51 l-40 -6 38 -2 c53 -1 97 23 97 54
0 14 -2 25 -5 25 -3 0 -5 -9 -5 -20z"/>
<path d="M3530 1187 c0 -20 -9 -33 -32 -47 -38 -23 -30 -27 11 -5 34 17 45 40
31 63 -8 14 -9 12 -10 -11z"/>
<path d="M3030 1183 c-13 -9 -49 -27 -79 -40 -45 -19 -49 -23 -21 -17 36 6
114 47 125 64 9 14 3 12 -25 -7z"/>
<path d="M3437 1185 c-8 -18 11 -31 25 -17 11 11 3 32 -12 32 -4 0 -10 -7 -13
-15z"/>
<path d="M1451 1173 c-1 -12 4 -25 9 -28 12 -7 12 2 0 30 -8 19 -9 19 -9 -2z"/>
<path d="M1980 1186 c0 -2 8 -10 18 -17 15 -13 16 -12 3 4 -13 16 -21 21 -21
13z"/>
<path d="M1770 1148 c0 -8 12 -21 28 -30 57 -35 113 -94 127 -133 9 -27 14
-33 15 -18 0 12 4 24 9 27 4 3 5 -12 1 -34 -5 -27 -4 -40 4 -40 6 0 2 -7 -8
-15 -11 -8 -29 -15 -40 -14 -19 0 -19 1 3 10 34 13 20 22 -24 13 -27 -5 -33
-9 -23 -16 8 -6 -8 -8 -47 -5 -35 3 -52 2 -39 -3 22 -8 80 -14 130 -11 64 3
93 66 59 130 -16 31 -121 131 -137 131 -6 0 10 -16 35 -35 25 -19 56 -49 68
-67 l22 -33 -39 35 c-82 74 -144 121 -144 108z"/>
<path d="M2042 1115 c19 -33 23 -54 23 -136 0 -54 3 -100 6 -103 11 -12 19
149 9 184 -5 19 -21 49 -35 65 l-25 30 22 -40z"/>
<path d="M3792 1127 c-19 -20 -48 -87 -38 -87 2 0 20 20 40 45 26 31 32 43 19
39 -16 -5 -16 -4 1 10 11 9 15 16 10 16 -6 0 -20 -11 -32 -23z"/>
<path d="M3880 1093 c-32 -39 -63 -63 -109 -85 -63 -30 -185 -117 -177 -126 3
-2 32 17 66 43 34 26 85 56 113 67 57 21 92 51 133 110 41 58 25 53 -26 -9z"/>
<path d="M2407 1130 c65 -14 101 -37 185 -117 53 -51 99 -84 143 -104 81 -36
97 -37 28 -1 -28 15 -85 59 -126 99 -84 81 -155 121 -225 128 l-47 4 42 -9z"/>
<path d="M2990 1093 c-26 -11 -58 -14 -119 -11 -84 5 -83 -4 1 -17 48 -7 112
6 143 29 25 19 20 19 -25 -1z"/>
<path d="M3717 1065 c-15 -24 -48 -60 -74 -81 -42 -34 -45 -35 -38 -13 9 28 3
24 -15 -10 -8 -15 -8 -21 -1 -17 18 12 12 -6 -11 -33 -13 -14 -5 -10 17 10 22
20 55 46 72 58 27 18 89 118 80 128 -2 1 -15 -18 -30 -42z"/>
<path d="M1690 1091 c0 -7 -4 -10 -9 -6 -5 3 -12 1 -15 -4 -4 -5 -2 -12 3 -15
5 -4 12 -2 15 3 3 5 16 7 29 4 23 -6 23 -6 -5 16 -13 10 -18 10 -18 2z"/>
<path d="M1853 1043 c52 -57 63 -80 20 -42 -24 21 -25 21 -9 2 10 -12 16 -29
13 -38 -4 -10 -1 -15 11 -15 15 0 15 -2 2 -10 -9 -6 -10 -10 -3 -10 7 0 17 9
23 20 15 29 -5 65 -60 109 l-45 36 48 -52z"/>
<path d="M2705 1072 c18 -18 165 -94 175 -90 6 2 -33 25 -87 52 -54 26 -93 43
-88 38z"/>
<path d="M2290 1062 c-28 -13 -21 -32 11 -32 17 0 28 -4 24 -10 -3 -5 4 -10
17 -9 37 1 98 -8 106 -15 4 -4 3 -7 -3 -5 -19 4 -65 -13 -59 -23 4 -5 11 -5
18 2 7 5 25 11 39 12 25 2 26 3 11 26 -9 13 -14 26 -11 28 2 2 12 -11 22 -30
19 -34 19 -35 0 -57 -46 -49 -114 -62 -190 -33 -22 8 -44 16 -50 17 -5 1 -15
9 -22 17 -9 11 -12 12 -13 2 0 -18 55 -72 72 -72 7 1 1 8 -14 16 -16 8 -28 19
-28 24 0 5 16 0 34 -11 109 -64 267 -3 242 94 -3 15 -18 34 -31 43 -27 18
-149 29 -175 16z"/>
<path d="M2670 1041 c72 -63 187 -122 234 -120 15 0 11 4 -14 13 -49 18 -134
62 -200 103 -55 34 -55 34 -20 4z"/>
<path d="M1724 1045 c-7 -18 3 -35 22 -35 20 0 30 30 13 41 -20 12 -29 11 -35
-6z"/>
<path d="M3351 1039 c-103 -36 -216 -97 -251 -135 l-35 -38 44 38 c52 46 182
108 231 111 67 4 71 5 65 15 -8 13 69 13 118 -1 44 -12 55 -31 40 -70 -15 -38
-8 -37 12 1 9 17 13 40 10 51 -16 50 -134 64 -234 28z"/>
<path d="M3583 1035 c7 -14 16 -25 20 -25 9 0 -9 36 -22 44 -5 4 -4 -5 2 -19z"/>
<path d="M3652 1030 c-18 -17 -26 -30 -19 -30 13 0 36 21 51 48 11 18 5 15
-32 -18z"/>
<path d="M2140 1014 c6 -15 8 -41 4 -59 -5 -29 16 -95 32 -95 2 0 0 9 -6 21
-7 12 -9 37 -5 59 4 26 1 48 -10 69 -19 38 -28 41 -15 5z"/>
<path d="M2220 1025 c-7 -9 -8 -15 -2 -15 5 0 12 7 16 15 3 8 4 15 2 15 -2 0
-9 -7 -16 -15z"/>
<path d="M3180 1009 c-30 -16 -68 -44 -85 -61 l-30 -31 39 29 c22 16 64 43 95
61 71 41 55 43 -19 2z"/>
<path d="M2511 1013 c0 -10 5 -27 10 -38 7 -16 8 -14 4 9 -4 19 -1 32 7 37 10
7 9 9 -4 9 -11 0 -18 -7 -17 -17z"/>
<path d="M3122 1009 c-18 -12 -31 -24 -28 -26 5 -5 66 35 66 43 0 6 -3 5 -38
-17z"/>
<path d="M1797 1013 c-11 -10 -8 -43 3 -43 20 0 25 -2 39 -13 12 -10 13 -8 8
13 -4 14 -7 31 -7 38 0 13 -32 17 -43 5z"/>
<path d="M1288 1000 c6 -8 12 -22 12 -32 0 -27 225 -177 363 -240 66 -31 39
-11 -50 37 -130 70 -303 187 -303 206 0 9 -8 23 -17 30 -15 11 -16 11 -5 -1z"/>
<path d="M1365 1001 c-9 -15 140 -120 152 -107 3 3 1 6 -5 6 -7 0 -39 25 -72
55 -64 59 -66 60 -75 46z"/>
<path d="M3484 996 c26 -8 35 -15 27 -20 -7 -5 -10 -14 -7 -22 3 -7 1 -27 -5
-43 -7 -21 -15 -28 -28 -24 -11 3 -22 0 -25 -6 -5 -7 4 -11 23 -11 27 0 34 7
56 50 31 61 31 68 3 44 -18 -15 -20 -16 -9 -2 22 29 7 48 -36 47 l-38 -1 39
-12z"/>
<path d="M3460 975 c27 -14 36 -13 25 4 -3 6 -16 11 -28 11 -21 -1 -21 -1 3
-15z"/>
<path d="M2908 973 c6 -2 18 -2 25 0 6 3 1 5 -13 5 -14 0 -19 -2 -12 -5z"/>
<path d="M3300 944 c-11 -12 -10 -18 3 -32 15 -15 19 -15 32 -1 17 17 11 49
-10 49 -7 0 -18 -7 -25 -16z"/>
<path d="M1355 940 c11 -18 89 -67 206 -129 138 -73 170 -81 46 -12 -48 27
-122 72 -164 100 -73 49 -101 62 -88 41z"/>
<path d="M3402 928 c6 -18 28 -21 28 -4 0 9 -7 16 -16 16 -9 0 -14 -5 -12 -12z"/>
<path d="M2970 923 c8 -3 22 -11 30 -17 13 -10 13 -9 1 7 -7 9 -21 17 -30 16
-13 0 -14 -1 -1 -6z"/>
<path d="M3226 921 c-4 -5 -2 -12 3 -15 5 -4 12 -2 15 3 4 5 2 12 -3 15 -5 4
-12 2 -15 -3z"/>
<path d="M2560 910 c0 -5 5 -10 10 -10 6 0 10 5 10 10 0 6 -4 10 -10 10 -5 0
-10 -4 -10 -10z"/>
<path d="M2190 900 c0 -5 10 -15 23 -21 22 -12 22 -12 3 10 -21 23 -26 26 -26
11z"/>
<path d="M2010 886 c-6 -9 -27 -21 -46 -28 -29 -10 -47 -28 -29 -28 31 0 105
53 93 65 -3 3 -11 -1 -18 -9z"/>
<path d="M1737 860 c72 -25 134 -36 168 -30 21 3 -32 19 -67 19 -20 1 -65 10
-100 21 -94 30 -95 23 -1 -10z"/>
<path d="M2110 881 c0 -18 38 -50 79 -67 32 -12 37 -19 34 -39 -5 -25 2 -29
67 -39 34 -5 34 -5 -5 8 -34 11 -40 17 -40 41 0 26 -5 30 -45 42 -25 7 -55 24
-67 38 -13 15 -23 21 -23 16z"/>
<path d="M2754 867 c37 -18 45 -25 33 -30 -20 -8 -23 -43 -4 -50 22 -8 40 9
34 32 -7 27 5 27 28 1 20 -22 14 -34 -20 -43 -16 -5 -15 -5 4 -4 13 1 29 10
35 19 15 24 -16 55 -73 72 -25 8 -55 17 -66 20 -11 4 2 -4 29 -17z"/>
<path d="M3406 821 c-20 -15 -24 -21 -11 -17 16 5 14 1 -8 -19 -15 -14 -24
-25 -18 -25 5 0 13 5 16 10 3 6 11 10 16 10 6 0 7 -5 3 -12 -5 -7 -2 -8 7 -3
25 15 49 38 49 48 0 6 -12 0 -27 -14 l-28 -24 23 26 c12 14 19 29 15 34 -5 4
-2 5 4 1 7 -4 21 -2 30 3 15 9 13 10 -11 8 -15 -1 -42 -12 -60 -26z"/>
<path d="M2712 826 c1 -10 8 -17 13 -17 15 1 12 24 -3 29 -9 3 -13 -2 -10 -12z"/>
<path d="M3488 795 c-39 -32 -71 -49 -114 -59 -32 -8 -49 -15 -36 -15 54 -2
113 22 167 70 70 61 56 65 -17 4z"/>
<path d="M1730 816 c0 -3 30 -14 68 -25 74 -21 222 -35 222 -20 0 5 -33 9 -72
9 -64 0 -119 10 -195 34 -13 4 -23 5 -23 2z"/>
<path d="M2905 808 c-4 -9 -2 -25 4 -37 15 -27 14 -29 -11 -34 -20 -4 -20 -4
4 -6 36 -1 40 8 23 55 -10 29 -15 35 -20 22z"/>
<path d="M2120 798 c0 -9 7 -22 17 -29 15 -13 15 -12 3 11 -17 34 -20 36 -20
18z"/>
<path d="M2312 785 c-1 -21 5 -26 51 -39 28 -8 71 -18 94 -21 37 -6 43 -4 53
17 10 21 10 22 -4 5 -16 -20 -32 -19 -133 9 -37 10 -51 18 -47 28 3 8 2 16 -3
19 -5 3 -10 -5 -11 -18z"/>
<path d="M2380 795 c0 -9 7 -18 15 -22 23 -8 24 0 3 20 -15 14 -18 15 -18 2z"/>
<path d="M3045 760 c-6 -10 63 -65 71 -57 3 3 -7 12 -23 21 -36 20 -26 20 20
1 42 -17 61 -19 52 -5 -3 6 -13 10 -21 10 -8 0 -33 9 -54 19 -22 11 -42 15
-45 11z"/>
<path d="M3165 750 c-3 -5 -1 -10 4 -10 6 0 11 5 11 10 0 6 -2 10 -4 10 -3 0
-8 -4 -11 -10z"/>
<path d="M1872 735 c2 -2 48 -9 102 -15 61 -7 120 -21 155 -36 49 -21 53 -22
31 -4 -35 28 -110 47 -209 54 -46 3 -82 4 -79 1z"/>
<path d="M3002 720 c3 -13 -18 -15 -137 -15 -77 -1 -174 -6 -215 -13 -41 -7
-93 -14 -115 -16 -22 -2 5 -1 60 2 55 3 168 6 252 7 157 0 194 9 164 38 -10
10 -12 9 -9 -3z"/>
<path d="M3260 706 c-43 -24 -201 -76 -305 -102 -55 -14 -123 -34 -151 -44
-47 -17 -69 -18 -310 -10 -143 5 -273 6 -289 1 -24 -6 -16 -8 35 -8 153 0 456
-11 472 -18 18 -7 54 3 319 86 151 47 300 107 269 108 -8 0 -26 -6 -40 -13z"/>
<path d="M2185 694 c24 -19 156 -87 160 -82 2 2 -38 24 -88 50 -51 26 -83 41
-72 32z"/>
<path d="M1820 690 c25 -4 37 -8 28 -8 -34 -3 -18 -20 19 -20 36 0 36 1 18 15
-12 9 -14 14 -5 11 8 -3 26 -8 40 -12 21 -5 20 -3 -5 9 -16 8 -55 14 -85 13
l-55 -1 45 -7z"/>
<path d="M2297 689 c7 -7 15 -10 18 -7 3 3 -2 9 -12 12 -14 6 -15 5 -6 -5z"/>
<path d="M1780 651 c27 -23 69 -39 180 -70 169 -46 219 -57 205 -44 -5 6 -77
27 -160 48 -82 21 -175 51 -205 67 l-55 29 35 -30z"/>
<path d="M2331 676 c3 -3 38 -17 78 -31 103 -36 169 -40 276 -16 104 23 69 28
-61 9 -84 -12 -105 -9 -274 38 -14 4 -22 4 -19 0z"/>
<path d="M2975 633 c-49 -13 -126 -27 -170 -32 l-80 -8 70 -2 c67 -1 232 34
274 59 22 13 10 11 -94 -17z"/>
<path d="M2071 636 c-12 -14 -10 -16 15 -17 16 -1 44 -2 62 -4 31 -3 32 -2 13
11 -33 23 -75 28 -90 10z m59 -6 c18 -12 2 -12 -25 0 -13 6 -15 9 -5 9 8 0 22
-4 30 -9z"/>
<path d="M2026 611 c-3 -5 6 -8 20 -8 19 0 22 2 13 8 -18 11 -26 11 -33 0z"/>
<path d="M2575 588 c-123 -22 -131 -27 -36 -22 101 6 124 11 115 25 -6 10 -10
10 -79 -3z"/>
<path d="M2398 573 c7 -3 16 -2 19 1 4 3 -2 6 -13 5 -11 0 -14 -3 -6 -6z"/>
</g>
</svg>
